<mxfile host="Electron" agent="Mozilla/5.0 (Windows NT 10.0; Win64; x64) AppleWebKit/537.36 (KHTML, like Gecko) draw.io/24.7.17 Chrome/128.0.6613.36 Electron/32.0.1 Safari/537.36" version="24.7.17">
  <diagram id="C5RBs43oDa-KdzZeNtuy" name="Page-1">
    <mxGraphModel dx="1372" dy="844" grid="0" gridSize="10" guides="1" tooltips="1" connect="1" arrows="1" fold="1" page="1" pageScale="1" pageWidth="827" pageHeight="1169" background="#ffffff" math="0" shadow="1">
      <root>
        <mxCell id="WIyWlLk6GJQsqaUBKTNV-0" />
        <mxCell id="WIyWlLk6GJQsqaUBKTNV-1" parent="WIyWlLk6GJQsqaUBKTNV-0" />
        <mxCell id="vchGi_3dxTFBsC3WIeSS-102" value="" style="whiteSpace=wrap;html=1;shape=mxgraph.basic.document;labelBackgroundColor=none;fillColor=#FAD9D5;strokeColor=#D0CEE2;fontColor=#1A1A1A;rounded=0;" vertex="1" parent="WIyWlLk6GJQsqaUBKTNV-1">
          <mxGeometry x="1338" y="501" width="152" height="29" as="geometry" />
        </mxCell>
        <mxCell id="vchGi_3dxTFBsC3WIeSS-239" value="" style="whiteSpace=wrap;html=1;shape=mxgraph.basic.document;align=left;labelBackgroundColor=none;fillColor=#FAD9D5;strokeColor=#D0CEE2;fontColor=#1A1A1A;rounded=0;" vertex="1" parent="WIyWlLk6GJQsqaUBKTNV-1">
          <mxGeometry x="623" y="526.5" width="119.92" height="52" as="geometry" />
        </mxCell>
        <mxCell id="vchGi_3dxTFBsC3WIeSS-212" value="" style="whiteSpace=wrap;html=1;shape=mxgraph.basic.document;labelBackgroundColor=none;fillColor=#FAD9D5;strokeColor=#D0CEE2;fontColor=#1A1A1A;rounded=0;" vertex="1" parent="WIyWlLk6GJQsqaUBKTNV-1">
          <mxGeometry x="815.91" y="889.35" width="119.93" height="22.65" as="geometry" />
        </mxCell>
        <mxCell id="vchGi_3dxTFBsC3WIeSS-182" value="" style="whiteSpace=wrap;html=1;shape=mxgraph.basic.document;labelBackgroundColor=none;fillColor=#FAD9D5;strokeColor=#D0CEE2;fontColor=#1A1A1A;rounded=0;" vertex="1" parent="WIyWlLk6GJQsqaUBKTNV-1">
          <mxGeometry x="1111" y="630" width="120" height="30" as="geometry" />
        </mxCell>
        <mxCell id="vchGi_3dxTFBsC3WIeSS-176" value="" style="whiteSpace=wrap;html=1;shape=mxgraph.basic.document;labelBackgroundColor=none;fillColor=#FAD9D5;strokeColor=#D0CEE2;fontColor=#1A1A1A;rounded=0;" vertex="1" parent="WIyWlLk6GJQsqaUBKTNV-1">
          <mxGeometry x="235" y="632" width="152" height="35" as="geometry" />
        </mxCell>
        <mxCell id="vchGi_3dxTFBsC3WIeSS-170" value="" style="whiteSpace=wrap;html=1;shape=mxgraph.basic.document;labelBackgroundColor=none;fillColor=#FAD9D5;strokeColor=#D0CEE2;fontColor=#1A1A1A;rounded=0;" vertex="1" parent="WIyWlLk6GJQsqaUBKTNV-1">
          <mxGeometry x="245" y="514" width="120" height="29" as="geometry" />
        </mxCell>
        <mxCell id="vchGi_3dxTFBsC3WIeSS-155" value="&lt;div&gt;&lt;br&gt;&lt;/div&gt;" style="whiteSpace=wrap;html=1;shape=mxgraph.basic.document;labelBackgroundColor=none;fillColor=#FAD9D5;strokeColor=#D0CEE2;fontColor=#1A1A1A;rounded=0;" vertex="1" parent="WIyWlLk6GJQsqaUBKTNV-1">
          <mxGeometry x="779.7099999999999" y="1110" width="177.08" height="29" as="geometry" />
        </mxCell>
        <mxCell id="vchGi_3dxTFBsC3WIeSS-148" value="" style="whiteSpace=wrap;html=1;shape=mxgraph.basic.document;labelBackgroundColor=none;fillColor=#FAD9D5;strokeColor=#D0CEE2;fontColor=#1A1A1A;rounded=0;" vertex="1" parent="WIyWlLk6GJQsqaUBKTNV-1">
          <mxGeometry x="1317.86" y="1011.5" width="204.89" height="29" as="geometry" />
        </mxCell>
        <mxCell id="vchGi_3dxTFBsC3WIeSS-77" value="" style="whiteSpace=wrap;html=1;shape=mxgraph.basic.document;labelBackgroundColor=none;fillColor=#FAD9D5;strokeColor=#D0CEE2;fontColor=#1A1A1A;rounded=0;" vertex="1" parent="WIyWlLk6GJQsqaUBKTNV-1">
          <mxGeometry x="1156.94" y="349" width="116.57" height="29" as="geometry" />
        </mxCell>
        <mxCell id="vchGi_3dxTFBsC3WIeSS-64" value="" style="whiteSpace=wrap;html=1;shape=mxgraph.basic.document;labelBackgroundColor=none;fillColor=#FAD9D5;strokeColor=#D0CEE2;fontColor=#1A1A1A;rounded=0;" vertex="1" parent="WIyWlLk6GJQsqaUBKTNV-1">
          <mxGeometry x="925.79" y="203" width="116.57" height="29" as="geometry" />
        </mxCell>
        <mxCell id="vchGi_3dxTFBsC3WIeSS-35" value="" style="whiteSpace=wrap;html=1;shape=mxgraph.basic.document;labelBackgroundColor=none;fillColor=#FAD9D5;strokeColor=#D0CEE2;fontColor=#1A1A1A;rounded=0;" vertex="1" parent="WIyWlLk6GJQsqaUBKTNV-1">
          <mxGeometry x="8" y="353" width="152" height="41" as="geometry" />
        </mxCell>
        <mxCell id="OLpAq79K6-Yp3FqnE2U5-7" value="Brand" style="swimlane;fontStyle=0;childLayout=stackLayout;horizontal=1;startSize=30;horizontalStack=0;resizeParent=1;resizeParentMax=0;resizeLast=0;collapsible=1;marginBottom=0;whiteSpace=wrap;html=1;labelBackgroundColor=none;fillColor=#FAD9D5;strokeColor=#D0CEE2;fontColor=#1A1A1A;rounded=0;" parent="WIyWlLk6GJQsqaUBKTNV-1" vertex="1">
          <mxGeometry x="434" y="634" width="140" height="100" as="geometry" />
        </mxCell>
        <mxCell id="OLpAq79K6-Yp3FqnE2U5-8" value="BNome (pk)&lt;div&gt;Representative&amp;nbsp;&lt;/div&gt;&lt;div&gt;Country of origin&lt;/div&gt;&lt;div&gt;Logo&lt;/div&gt;&lt;div&gt;&lt;br&gt;&lt;/div&gt;" style="text;strokeColor=none;fillColor=none;align=left;verticalAlign=middle;spacingLeft=4;spacingRight=4;overflow=hidden;points=[[0,0.5],[1,0.5]];portConstraint=eastwest;rotatable=0;whiteSpace=wrap;html=1;labelBackgroundColor=none;fontColor=#1A1A1A;rounded=0;" parent="OLpAq79K6-Yp3FqnE2U5-7" vertex="1">
          <mxGeometry y="30" width="140" height="70" as="geometry" />
        </mxCell>
        <mxCell id="OLpAq79K6-Yp3FqnE2U5-11" value="Runway" style="swimlane;fontStyle=0;childLayout=stackLayout;horizontal=1;startSize=30;horizontalStack=0;resizeParent=1;resizeParentMax=0;resizeLast=0;collapsible=1;marginBottom=0;whiteSpace=wrap;html=1;labelBackgroundColor=none;fillColor=#FAD9D5;strokeColor=#D0CEE2;fontColor=#1A1A1A;rounded=0;" parent="WIyWlLk6GJQsqaUBKTNV-1" vertex="1">
          <mxGeometry x="768" y="624.5" width="140" height="120" as="geometry" />
        </mxCell>
        <mxCell id="OLpAq79K6-Yp3FqnE2U5-14" value="&lt;div&gt;&lt;span style=&quot;background-color: initial;&quot;&gt;IdShow (pk&lt;/span&gt;&lt;span style=&quot;background-color: initial;&quot;&gt;)&lt;/span&gt;&lt;/div&gt;&lt;div&gt;&lt;span style=&quot;background-color: initial;&quot;&gt;Address (fk)&lt;/span&gt;&lt;/div&gt;&lt;div&gt;&lt;span style=&quot;background-color: initial;&quot;&gt;BName (fk)&lt;/span&gt;&lt;/div&gt;Date&amp;nbsp;&lt;div&gt;Time&lt;/div&gt;&lt;div&gt;Budget&lt;/div&gt;" style="text;strokeColor=none;fillColor=none;align=left;verticalAlign=middle;spacingLeft=4;spacingRight=4;overflow=hidden;points=[[0,0.5],[1,0.5]];portConstraint=eastwest;rotatable=0;whiteSpace=wrap;html=1;labelBackgroundColor=none;fontColor=#1A1A1A;rounded=0;" parent="OLpAq79K6-Yp3FqnE2U5-11" vertex="1">
          <mxGeometry y="30" width="140" height="90" as="geometry" />
        </mxCell>
        <mxCell id="OLpAq79K6-Yp3FqnE2U5-19" value="Collection" style="swimlane;fontStyle=0;childLayout=stackLayout;horizontal=1;startSize=30;horizontalStack=0;resizeParent=1;resizeParentMax=0;resizeLast=0;collapsible=1;marginBottom=0;whiteSpace=wrap;html=1;labelBackgroundColor=none;fillColor=#FAD9D5;strokeColor=#D0CEE2;fontColor=#1A1A1A;rounded=0;" parent="WIyWlLk6GJQsqaUBKTNV-1" vertex="1">
          <mxGeometry x="434" y="494" width="140" height="80" as="geometry" />
        </mxCell>
        <mxCell id="OLpAq79K6-Yp3FqnE2U5-20" value="CName (pk)&lt;div&gt;Brand (fk)&lt;br&gt;&lt;div&gt;Season&lt;/div&gt;&lt;/div&gt;" style="text;strokeColor=none;fillColor=none;align=left;verticalAlign=middle;spacingLeft=4;spacingRight=4;overflow=hidden;points=[[0,0.5],[1,0.5]];portConstraint=eastwest;rotatable=0;whiteSpace=wrap;html=1;labelBackgroundColor=none;fontColor=#1A1A1A;rounded=0;" parent="OLpAq79K6-Yp3FqnE2U5-19" vertex="1">
          <mxGeometry y="30" width="140" height="50" as="geometry" />
        </mxCell>
        <mxCell id="OLpAq79K6-Yp3FqnE2U5-23" value="Fashion Piece" style="swimlane;fontStyle=0;childLayout=stackLayout;horizontal=1;startSize=30;horizontalStack=0;resizeParent=1;resizeParentMax=0;resizeLast=0;collapsible=1;marginBottom=0;whiteSpace=wrap;html=1;labelBackgroundColor=none;fillColor=#FAD9D5;strokeColor=#D0CEE2;fontColor=#1A1A1A;rounded=0;" parent="WIyWlLk6GJQsqaUBKTNV-1" vertex="1">
          <mxGeometry x="434" y="304" width="140" height="120" as="geometry" />
        </mxCell>
        <mxCell id="OLpAq79K6-Yp3FqnE2U5-24" value="idPiece (pk)&lt;div&gt;Collection (fk)&lt;/div&gt;&lt;div&gt;Designer (fk)&lt;br&gt;&lt;div&gt;Material&amp;nbsp;&lt;/div&gt;&lt;div&gt;Color&lt;/div&gt;&lt;div&gt;Type&lt;/div&gt;&lt;/div&gt;" style="text;strokeColor=none;fillColor=none;align=left;verticalAlign=middle;spacingLeft=4;spacingRight=4;overflow=hidden;points=[[0,0.5],[1,0.5]];portConstraint=eastwest;rotatable=0;whiteSpace=wrap;html=1;labelBackgroundColor=none;fontColor=#1A1A1A;rounded=0;" parent="OLpAq79K6-Yp3FqnE2U5-23" vertex="1">
          <mxGeometry y="30" width="140" height="90" as="geometry" />
        </mxCell>
        <mxCell id="OLpAq79K6-Yp3FqnE2U5-30" value="Designer" style="swimlane;fontStyle=0;childLayout=stackLayout;horizontal=1;startSize=30;horizontalStack=0;resizeParent=1;resizeParentMax=0;resizeLast=0;collapsible=1;marginBottom=0;whiteSpace=wrap;html=1;labelBackgroundColor=none;fillColor=#FAD9D5;strokeColor=#D0CEE2;fontColor=#1A1A1A;rounded=0;" parent="WIyWlLk6GJQsqaUBKTNV-1" vertex="1">
          <mxGeometry x="207" y="314" width="140" height="120" as="geometry" />
        </mxCell>
        <mxCell id="OLpAq79K6-Yp3FqnE2U5-31" value="Name (pk)&lt;div&gt;Age&lt;/div&gt;&lt;div&gt;Nationality&lt;/div&gt;&lt;div&gt;Photography&lt;/div&gt;&lt;div&gt;Email&amp;nbsp;&lt;/div&gt;&lt;div&gt;Biography&amp;nbsp;&lt;/div&gt;" style="text;strokeColor=none;fillColor=none;align=left;verticalAlign=middle;spacingLeft=4;spacingRight=4;overflow=hidden;points=[[0,0.5],[1,0.5]];portConstraint=eastwest;rotatable=0;whiteSpace=wrap;html=1;labelBackgroundColor=none;fontColor=#1A1A1A;rounded=0;" parent="OLpAq79K6-Yp3FqnE2U5-30" vertex="1">
          <mxGeometry y="30" width="140" height="90" as="geometry" />
        </mxCell>
        <mxCell id="OLpAq79K6-Yp3FqnE2U5-34" value="" style="endArrow=none;html=1;rounded=0;exitX=0.498;exitY=-0.027;exitDx=0;exitDy=0;exitPerimeter=0;entryX=0.5;entryY=1;entryDx=0;entryDy=0;labelBackgroundColor=none;strokeColor=#09555B;fontColor=default;" parent="WIyWlLk6GJQsqaUBKTNV-1" source="OLpAq79K6-Yp3FqnE2U5-7" target="OLpAq79K6-Yp3FqnE2U5-19" edge="1">
          <mxGeometry width="50" height="50" relative="1" as="geometry">
            <mxPoint x="504" y="534" as="sourcePoint" />
            <mxPoint x="504" y="594" as="targetPoint" />
          </mxGeometry>
        </mxCell>
        <mxCell id="OLpAq79K6-Yp3FqnE2U5-36" value="" style="endArrow=none;html=1;rounded=0;labelBackgroundColor=none;strokeColor=#09555B;fontColor=default;" parent="WIyWlLk6GJQsqaUBKTNV-1" edge="1">
          <mxGeometry width="50" height="50" relative="1" as="geometry">
            <mxPoint x="504" y="424" as="sourcePoint" />
            <mxPoint x="504" y="424" as="targetPoint" />
            <Array as="points" />
          </mxGeometry>
        </mxCell>
        <mxCell id="OLpAq79K6-Yp3FqnE2U5-47" value="Styling Technician" style="swimlane;fontStyle=0;childLayout=stackLayout;horizontal=1;startSize=30;horizontalStack=0;resizeParent=1;resizeParentMax=0;resizeLast=0;collapsible=1;marginBottom=0;whiteSpace=wrap;html=1;labelBackgroundColor=none;fillColor=#FAD9D5;strokeColor=#D0CEE2;fontColor=#1A1A1A;rounded=0;" parent="WIyWlLk6GJQsqaUBKTNV-1" vertex="1">
          <mxGeometry x="967.79" y="324" width="140" height="90" as="geometry" />
        </mxCell>
        <mxCell id="OLpAq79K6-Yp3FqnE2U5-48" value="Name (pk)&lt;div&gt;Model (fk)&lt;br&gt;&lt;div&gt;Function&lt;/div&gt;&lt;div&gt;Email&lt;/div&gt;&lt;/div&gt;" style="text;strokeColor=none;fillColor=none;align=left;verticalAlign=middle;spacingLeft=4;spacingRight=4;overflow=hidden;points=[[0,0.5],[1,0.5]];portConstraint=eastwest;rotatable=0;whiteSpace=wrap;html=1;labelBackgroundColor=none;fontColor=#1A1A1A;rounded=0;" parent="OLpAq79K6-Yp3FqnE2U5-47" vertex="1">
          <mxGeometry y="30" width="140" height="60" as="geometry" />
        </mxCell>
        <mxCell id="OLpAq79K6-Yp3FqnE2U5-51" value="" style="endArrow=none;html=1;rounded=0;exitX=1.002;exitY=0.345;exitDx=0;exitDy=0;entryX=-0.002;entryY=0.443;entryDx=0;entryDy=0;entryPerimeter=0;exitPerimeter=0;labelBackgroundColor=none;strokeColor=#09555B;fontColor=default;" parent="WIyWlLk6GJQsqaUBKTNV-1" target="OLpAq79K6-Yp3FqnE2U5-14" edge="1">
          <mxGeometry width="50" height="50" relative="1" as="geometry">
            <mxPoint x="574.2799999999999" y="694.15" as="sourcePoint" />
            <mxPoint x="643.44" y="694.0099999999998" as="targetPoint" />
            <Array as="points" />
          </mxGeometry>
        </mxCell>
        <mxCell id="OLpAq79K6-Yp3FqnE2U5-55" value="" style="endArrow=none;html=1;rounded=0;labelBackgroundColor=none;strokeColor=#09555B;fontColor=default;" parent="WIyWlLk6GJQsqaUBKTNV-1" edge="1">
          <mxGeometry width="50" height="50" relative="1" as="geometry">
            <mxPoint x="900.79" y="927" as="sourcePoint" />
            <mxPoint x="1139.79" y="927" as="targetPoint" />
          </mxGeometry>
        </mxCell>
        <mxCell id="OLpAq79K6-Yp3FqnE2U5-57" value="Influencer" style="swimlane;fontStyle=0;childLayout=stackLayout;horizontal=1;startSize=30;horizontalStack=0;resizeParent=1;resizeParentMax=0;resizeLast=0;collapsible=1;marginBottom=0;whiteSpace=wrap;html=1;labelBackgroundColor=none;fillColor=#FAD9D5;strokeColor=#D0CEE2;fontColor=#1A1A1A;rounded=0;" parent="WIyWlLk6GJQsqaUBKTNV-1" vertex="1">
          <mxGeometry x="830.79" y="967" width="140" height="80" as="geometry" />
        </mxCell>
        <mxCell id="OLpAq79K6-Yp3FqnE2U5-58" value="&lt;div&gt;NumFollowers&lt;/div&gt;&lt;div&gt;InstagramHandle&lt;/div&gt;" style="text;strokeColor=none;fillColor=none;align=left;verticalAlign=middle;spacingLeft=4;spacingRight=4;overflow=hidden;points=[[0,0.5],[1,0.5]];portConstraint=eastwest;rotatable=0;whiteSpace=wrap;html=1;labelBackgroundColor=none;fontColor=#1A1A1A;rounded=0;" parent="OLpAq79K6-Yp3FqnE2U5-57" vertex="1">
          <mxGeometry y="30" width="140" height="50" as="geometry" />
        </mxCell>
        <mxCell id="OLpAq79K6-Yp3FqnE2U5-62" value="" style="endArrow=none;html=1;rounded=0;entryX=0.545;entryY=1.001;entryDx=0;entryDy=0;entryPerimeter=0;labelBackgroundColor=none;strokeColor=#09555B;fontColor=default;" parent="WIyWlLk6GJQsqaUBKTNV-1" target="OLpAq79K6-Yp3FqnE2U5-8" edge="1">
          <mxGeometry width="50" height="50" relative="1" as="geometry">
            <mxPoint x="829" y="1012" as="sourcePoint" />
            <mxPoint x="506.76" y="734" as="targetPoint" />
            <Array as="points">
              <mxPoint x="829" y="1007" />
              <mxPoint x="511" y="1007" />
            </Array>
          </mxGeometry>
        </mxCell>
        <mxCell id="OLpAq79K6-Yp3FqnE2U5-74" value="" style="endArrow=none;html=1;rounded=0;exitX=0.5;exitY=0;exitDx=0;exitDy=0;labelBackgroundColor=none;strokeColor=#09555B;fontColor=default;" parent="WIyWlLk6GJQsqaUBKTNV-1" source="OLpAq79K6-Yp3FqnE2U5-57" edge="1">
          <mxGeometry width="50" height="50" relative="1" as="geometry">
            <mxPoint x="792.79" y="977" as="sourcePoint" />
            <mxPoint x="900.79" y="928" as="targetPoint" />
          </mxGeometry>
        </mxCell>
        <mxCell id="OLpAq79K6-Yp3FqnE2U5-81" value="" style="endArrow=none;html=1;rounded=0;labelBackgroundColor=none;strokeColor=#09555B;fontColor=default;" parent="WIyWlLk6GJQsqaUBKTNV-1" edge="1">
          <mxGeometry width="50" height="50" relative="1" as="geometry">
            <mxPoint x="1139.61" y="967" as="sourcePoint" />
            <mxPoint x="1139.61" y="927" as="targetPoint" />
          </mxGeometry>
        </mxCell>
        <mxCell id="OLpAq79K6-Yp3FqnE2U5-82" value="Media" style="swimlane;fontStyle=0;childLayout=stackLayout;horizontal=1;startSize=30;horizontalStack=0;resizeParent=1;resizeParentMax=0;resizeLast=0;collapsible=1;marginBottom=0;whiteSpace=wrap;html=1;labelBackgroundColor=none;fillColor=#FAD9D5;strokeColor=#D0CEE2;fontColor=#1A1A1A;rounded=0;" parent="WIyWlLk6GJQsqaUBKTNV-1" vertex="1">
          <mxGeometry x="1064.79" y="967" width="160" height="80" as="geometry" />
        </mxCell>
        <mxCell id="OLpAq79K6-Yp3FqnE2U5-83" value="&lt;div&gt;Occupation&lt;/div&gt;&lt;div&gt;MeansofCommunication&lt;/div&gt;" style="text;strokeColor=none;fillColor=none;align=left;verticalAlign=middle;spacingLeft=4;spacingRight=4;overflow=hidden;points=[[0,0.5],[1,0.5]];portConstraint=eastwest;rotatable=0;whiteSpace=wrap;html=1;labelBackgroundColor=none;fontColor=#1A1A1A;rounded=0;" parent="OLpAq79K6-Yp3FqnE2U5-82" vertex="1">
          <mxGeometry y="30" width="160" height="50" as="geometry" />
        </mxCell>
        <mxCell id="OLpAq79K6-Yp3FqnE2U5-88" value="Ticket" style="swimlane;fontStyle=0;childLayout=stackLayout;horizontal=1;startSize=30;horizontalStack=0;resizeParent=1;resizeParentMax=0;resizeLast=0;collapsible=1;marginBottom=0;whiteSpace=wrap;html=1;labelBackgroundColor=none;fillColor=#FAD9D5;strokeColor=#D0CEE2;fontColor=#1A1A1A;rounded=0;" parent="WIyWlLk6GJQsqaUBKTNV-1" vertex="1">
          <mxGeometry x="761" y="787" width="140" height="90" as="geometry" />
        </mxCell>
        <mxCell id="OLpAq79K6-Yp3FqnE2U5-89" value="&lt;div&gt;IdShow (pk)(fk)&lt;/div&gt;&lt;div&gt;Name (pk)(fk)&lt;/div&gt;&lt;div&gt;&lt;span style=&quot;background-color: initial;&quot;&gt;Type&lt;/span&gt;&lt;/div&gt;&lt;div&gt;&lt;span style=&quot;background-color: initial;&quot;&gt;Status&amp;nbsp;&lt;/span&gt;&lt;br&gt;&lt;/div&gt;" style="text;strokeColor=none;fillColor=none;align=left;verticalAlign=middle;spacingLeft=4;spacingRight=4;overflow=hidden;points=[[0,0.5],[1,0.5]];portConstraint=eastwest;rotatable=0;whiteSpace=wrap;html=1;labelBackgroundColor=none;fontColor=#1A1A1A;rounded=0;" parent="OLpAq79K6-Yp3FqnE2U5-88" vertex="1">
          <mxGeometry y="30" width="140" height="60" as="geometry" />
        </mxCell>
        <mxCell id="OLpAq79K6-Yp3FqnE2U5-94" value="Local Technician" style="swimlane;fontStyle=0;childLayout=stackLayout;horizontal=1;startSize=30;horizontalStack=0;resizeParent=1;resizeParentMax=0;resizeLast=0;collapsible=1;marginBottom=0;whiteSpace=wrap;html=1;labelBackgroundColor=none;fillColor=#FAD9D5;strokeColor=#D0CEE2;fontColor=#1A1A1A;rounded=0;" parent="WIyWlLk6GJQsqaUBKTNV-1" vertex="1">
          <mxGeometry x="1261" y="632" width="140" height="120" as="geometry" />
        </mxCell>
        <mxCell id="OLpAq79K6-Yp3FqnE2U5-95" value="Name (pk)&lt;div&gt;Address (fk)&lt;br&gt;&lt;div&gt;Function&lt;/div&gt;&lt;div&gt;Email&lt;/div&gt;&lt;div&gt;Material&lt;/div&gt;&lt;/div&gt;" style="text;strokeColor=none;fillColor=none;align=left;verticalAlign=middle;spacingLeft=4;spacingRight=4;overflow=hidden;points=[[0,0.5],[1,0.5]];portConstraint=eastwest;rotatable=0;whiteSpace=wrap;html=1;labelBackgroundColor=none;fontColor=#1A1A1A;rounded=0;" parent="OLpAq79K6-Yp3FqnE2U5-94" vertex="1">
          <mxGeometry y="30" width="140" height="90" as="geometry" />
        </mxCell>
        <mxCell id="OLpAq79K6-Yp3FqnE2U5-38" value="Model" style="swimlane;fontStyle=0;childLayout=stackLayout;horizontal=1;startSize=30;horizontalStack=0;resizeParent=1;resizeParentMax=0;resizeLast=0;collapsible=1;marginBottom=0;whiteSpace=wrap;html=1;labelBackgroundColor=none;fillColor=#FAD9D5;strokeColor=#D0CEE2;fontColor=#1A1A1A;rounded=0;" parent="WIyWlLk6GJQsqaUBKTNV-1" vertex="1">
          <mxGeometry x="768" y="281" width="117" height="190" as="geometry" />
        </mxCell>
        <mxCell id="OLpAq79K6-Yp3FqnE2U5-44" value="&lt;div style=&quot;&quot;&gt;Name (pk)&lt;div&gt;Age&lt;/div&gt;&lt;div&gt;Nationality&lt;/div&gt;&lt;div&gt;Bust&lt;/div&gt;&lt;div&gt;Waist&lt;/div&gt;&lt;div&gt;Hips&lt;/div&gt;&lt;div&gt;Height&lt;/div&gt;&lt;div&gt;Weight&lt;/div&gt;&lt;div&gt;Health Problems&lt;/div&gt;&lt;div&gt;Email&lt;/div&gt;&lt;/div&gt;" style="text;html=1;align=left;verticalAlign=middle;resizable=0;points=[];autosize=1;strokeColor=none;fillColor=none;labelBackgroundColor=none;fontColor=#1A1A1A;rounded=0;" parent="OLpAq79K6-Yp3FqnE2U5-38" vertex="1">
          <mxGeometry y="30" width="117" height="160" as="geometry" />
        </mxCell>
        <mxCell id="h2daB5j5cSeQjACsS8w_-1" value="" style="endArrow=none;html=1;rounded=0;exitX=0.5;exitY=0;exitDx=0;exitDy=0;labelBackgroundColor=none;strokeColor=#09555B;fontColor=default;" parent="WIyWlLk6GJQsqaUBKTNV-1" source="OLpAq79K6-Yp3FqnE2U5-19" edge="1">
          <mxGeometry width="50" height="50" relative="1" as="geometry">
            <mxPoint x="504" y="514" as="sourcePoint" />
            <mxPoint x="504" y="424" as="targetPoint" />
          </mxGeometry>
        </mxCell>
        <mxCell id="h2daB5j5cSeQjACsS8w_-6" value="Spectator" style="swimlane;fontStyle=0;childLayout=stackLayout;horizontal=1;startSize=30;horizontalStack=0;resizeParent=1;resizeParentMax=0;resizeLast=0;collapsible=1;marginBottom=0;whiteSpace=wrap;html=1;labelBackgroundColor=none;fillColor=#FAD9D5;strokeColor=#D0CEE2;fontColor=#1A1A1A;rounded=0;" parent="WIyWlLk6GJQsqaUBKTNV-1" vertex="1">
          <mxGeometry x="947.79" y="787" width="140" height="80" as="geometry" />
        </mxCell>
        <mxCell id="h2daB5j5cSeQjACsS8w_-8" value="Name (pk)&lt;div&gt;Email&lt;/div&gt;&lt;div&gt;Seat&lt;/div&gt;" style="text;strokeColor=none;fillColor=none;align=left;verticalAlign=middle;spacingLeft=4;spacingRight=4;overflow=hidden;points=[[0,0.5],[1,0.5]];portConstraint=eastwest;rotatable=0;whiteSpace=wrap;html=1;labelBackgroundColor=none;fontColor=#1A1A1A;rounded=0;" parent="h2daB5j5cSeQjACsS8w_-6" vertex="1">
          <mxGeometry y="30" width="140" height="50" as="geometry" />
        </mxCell>
        <mxCell id="tS8xyD3pDplZ-1kiy1CS-0" value="" style="endArrow=none;html=1;rounded=0;labelBackgroundColor=none;strokeColor=#09555B;fontColor=default;" parent="WIyWlLk6GJQsqaUBKTNV-1" target="tS8xyD3pDplZ-1kiy1CS-2" edge="1">
          <mxGeometry width="50" height="50" relative="1" as="geometry">
            <mxPoint x="1017.79" y="928" as="sourcePoint" />
            <mxPoint x="1017.6599999999999" y="892" as="targetPoint" />
            <Array as="points" />
          </mxGeometry>
        </mxCell>
        <mxCell id="tS8xyD3pDplZ-1kiy1CS-2" value="" style="triangle;whiteSpace=wrap;html=1;rotation=-90;labelBackgroundColor=none;fillColor=#FAD9D5;strokeColor=#D0CEE2;fontColor=#1A1A1A;rounded=0;" parent="WIyWlLk6GJQsqaUBKTNV-1" vertex="1">
          <mxGeometry x="1011.0099999999998" y="867" width="13.56" height="16" as="geometry" />
        </mxCell>
        <mxCell id="tS8xyD3pDplZ-1kiy1CS-5" value="*" style="text;html=1;align=center;verticalAlign=middle;whiteSpace=wrap;rounded=0;labelBackgroundColor=none;fontColor=#1A1A1A;" parent="WIyWlLk6GJQsqaUBKTNV-1" vertex="1">
          <mxGeometry x="902" y="832" width="10.79" as="geometry" />
        </mxCell>
        <mxCell id="tS8xyD3pDplZ-1kiy1CS-6" value="&lt;font style=&quot;font-size: 10px;&quot;&gt;1&lt;/font&gt;" style="text;html=1;align=center;verticalAlign=middle;whiteSpace=wrap;rounded=0;labelBackgroundColor=none;fontColor=#1A1A1A;" parent="WIyWlLk6GJQsqaUBKTNV-1" vertex="1">
          <mxGeometry x="513.5" y="738" width="5" height="10" as="geometry" />
        </mxCell>
        <mxCell id="tS8xyD3pDplZ-1kiy1CS-7" value="*" style="text;html=1;align=center;verticalAlign=middle;whiteSpace=wrap;rounded=0;labelBackgroundColor=none;fontColor=#1A1A1A;" parent="WIyWlLk6GJQsqaUBKTNV-1" vertex="1">
          <mxGeometry x="819.5" y="1003" width="10" as="geometry" />
        </mxCell>
        <mxCell id="tS8xyD3pDplZ-1kiy1CS-8" value="&lt;font style=&quot;font-size: 10px;&quot;&gt;1&lt;/font&gt;" style="text;html=1;align=center;verticalAlign=middle;whiteSpace=wrap;rounded=0;labelBackgroundColor=none;fontColor=#1A1A1A;" parent="WIyWlLk6GJQsqaUBKTNV-1" vertex="1">
          <mxGeometry x="576" y="683.5" width="7" height="2" as="geometry" />
        </mxCell>
        <mxCell id="tS8xyD3pDplZ-1kiy1CS-10" value="&lt;font style=&quot;font-size: 10px;&quot;&gt;1&lt;/font&gt;" style="text;html=1;align=center;verticalAlign=middle;whiteSpace=wrap;rounded=0;labelBackgroundColor=none;fontColor=#1A1A1A;" parent="WIyWlLk6GJQsqaUBKTNV-1" vertex="1">
          <mxGeometry x="484" y="609" width="60" height="30" as="geometry" />
        </mxCell>
        <mxCell id="tS8xyD3pDplZ-1kiy1CS-11" value="*" style="text;html=1;align=center;verticalAlign=middle;whiteSpace=wrap;rounded=0;labelBackgroundColor=none;fontColor=#1A1A1A;" parent="WIyWlLk6GJQsqaUBKTNV-1" vertex="1">
          <mxGeometry x="484" y="573" width="60" height="30" as="geometry" />
        </mxCell>
        <mxCell id="tS8xyD3pDplZ-1kiy1CS-12" value="&lt;font style=&quot;font-size: 10px;&quot;&gt;1&lt;/font&gt;" style="text;html=1;align=center;verticalAlign=middle;whiteSpace=wrap;rounded=0;labelBackgroundColor=none;fontColor=#1A1A1A;" parent="WIyWlLk6GJQsqaUBKTNV-1" vertex="1">
          <mxGeometry x="483" y="471" width="60" height="30" as="geometry" />
        </mxCell>
        <mxCell id="tS8xyD3pDplZ-1kiy1CS-13" value="*" style="text;html=1;align=center;verticalAlign=middle;whiteSpace=wrap;rounded=0;labelBackgroundColor=none;fontColor=#1A1A1A;" parent="WIyWlLk6GJQsqaUBKTNV-1" vertex="1">
          <mxGeometry x="484" y="422" width="60" height="30" as="geometry" />
        </mxCell>
        <mxCell id="tS8xyD3pDplZ-1kiy1CS-14" value="*" style="text;html=1;align=center;verticalAlign=middle;whiteSpace=wrap;rounded=0;labelBackgroundColor=none;fontColor=#1A1A1A;" parent="WIyWlLk6GJQsqaUBKTNV-1" vertex="1">
          <mxGeometry x="827.5" y="495" width="17" height="30" as="geometry" />
        </mxCell>
        <mxCell id="tS8xyD3pDplZ-1kiy1CS-15" value="*" style="text;html=1;align=center;verticalAlign=middle;whiteSpace=wrap;rounded=0;labelBackgroundColor=none;fontColor=#1A1A1A;" parent="WIyWlLk6GJQsqaUBKTNV-1" vertex="1">
          <mxGeometry x="832.5" y="601" width="9" as="geometry" />
        </mxCell>
        <mxCell id="tS8xyD3pDplZ-1kiy1CS-16" value="&lt;span style=&quot;font-size: 10px;&quot;&gt;1...*&lt;/span&gt;" style="text;html=1;align=center;verticalAlign=middle;whiteSpace=wrap;rounded=0;labelBackgroundColor=none;fontColor=#1A1A1A;" parent="WIyWlLk6GJQsqaUBKTNV-1" vertex="1">
          <mxGeometry x="945.79" y="352" width="17" height="8" as="geometry" />
        </mxCell>
        <mxCell id="tS8xyD3pDplZ-1kiy1CS-17" value="&lt;font style=&quot;font-size: 10px;&quot;&gt;1&lt;/font&gt;" style="text;html=1;align=center;verticalAlign=middle;whiteSpace=wrap;rounded=0;labelBackgroundColor=none;fontColor=#1A1A1A;" parent="WIyWlLk6GJQsqaUBKTNV-1" vertex="1">
          <mxGeometry x="887" y="352" width="7.5" height="8" as="geometry" />
        </mxCell>
        <mxCell id="tS8xyD3pDplZ-1kiy1CS-19" value="1" style="text;html=1;align=center;verticalAlign=middle;whiteSpace=wrap;rounded=0;labelBackgroundColor=none;fontColor=#1A1A1A;" parent="WIyWlLk6GJQsqaUBKTNV-1" vertex="1">
          <mxGeometry x="1098" y="684" width="1" height="1" as="geometry" />
        </mxCell>
        <mxCell id="tS8xyD3pDplZ-1kiy1CS-21" value="*" style="text;html=1;align=center;verticalAlign=middle;whiteSpace=wrap;rounded=0;labelBackgroundColor=none;fontColor=#1A1A1A;" parent="WIyWlLk6GJQsqaUBKTNV-1" vertex="1">
          <mxGeometry x="1248" y="687" width="13" height="5" as="geometry" />
        </mxCell>
        <mxCell id="OLpAq79K6-Yp3FqnE2U5-46" value="" style="endArrow=none;html=1;rounded=0;exitX=0.994;exitY=0.33;exitDx=0;exitDy=0;entryX=1.311;entryY=1.552;entryDx=0;entryDy=0;entryPerimeter=0;exitPerimeter=0;labelBackgroundColor=none;strokeColor=#09555B;fontColor=default;" parent="WIyWlLk6GJQsqaUBKTNV-1" source="OLpAq79K6-Yp3FqnE2U5-44" target="tS8xyD3pDplZ-1kiy1CS-16" edge="1">
          <mxGeometry width="50" height="50" relative="1" as="geometry">
            <mxPoint x="886.0530000000001" y="363.64" as="sourcePoint" />
            <mxPoint x="965.3" y="364.04" as="targetPoint" />
          </mxGeometry>
        </mxCell>
        <mxCell id="LyMC56T-BypBeBw1wxai-3" value="Model_Runway" style="swimlane;fontStyle=0;childLayout=stackLayout;horizontal=1;startSize=30;horizontalStack=0;resizeParent=1;resizeParentMax=0;resizeLast=0;collapsible=1;marginBottom=0;whiteSpace=wrap;html=1;labelBackgroundColor=none;fillColor=#FAD9D5;strokeColor=#D0CEE2;fontColor=#1A1A1A;rounded=0;" parent="WIyWlLk6GJQsqaUBKTNV-1" vertex="1">
          <mxGeometry x="771" y="514" width="120" height="80" as="geometry" />
        </mxCell>
        <mxCell id="LyMC56T-BypBeBw1wxai-4" value="IdShow (pk)(fk)&lt;div&gt;Name (pk)(fk)&lt;/div&gt;&lt;div&gt;Order&amp;nbsp;&lt;/div&gt;" style="text;strokeColor=none;fillColor=none;align=left;verticalAlign=middle;spacingLeft=4;spacingRight=4;overflow=hidden;points=[[0,0.5],[1,0.5]];portConstraint=eastwest;rotatable=0;whiteSpace=wrap;html=1;labelBackgroundColor=none;fontColor=#1A1A1A;rounded=0;" parent="LyMC56T-BypBeBw1wxai-3" vertex="1">
          <mxGeometry y="30" width="120" height="50" as="geometry" />
        </mxCell>
        <mxCell id="LyMC56T-BypBeBw1wxai-7" value="" style="endArrow=none;html=1;rounded=0;exitX=0.494;exitY=-0.003;exitDx=0;exitDy=0;entryX=0.532;entryY=1.003;entryDx=0;entryDy=0;entryPerimeter=0;exitPerimeter=0;labelBackgroundColor=none;strokeColor=#09555B;fontColor=default;" parent="WIyWlLk6GJQsqaUBKTNV-1" source="LyMC56T-BypBeBw1wxai-3" edge="1" target="OLpAq79K6-Yp3FqnE2U5-44">
          <mxGeometry width="50" height="50" relative="1" as="geometry">
            <mxPoint x="781" y="513" as="sourcePoint" />
            <mxPoint x="831" y="463" as="targetPoint" />
          </mxGeometry>
        </mxCell>
        <mxCell id="LyMC56T-BypBeBw1wxai-8" value="1" style="text;html=1;align=center;verticalAlign=middle;whiteSpace=wrap;rounded=0;labelBackgroundColor=none;fontColor=#1A1A1A;" parent="WIyWlLk6GJQsqaUBKTNV-1" vertex="1">
          <mxGeometry x="827.5" y="463" width="17" height="30" as="geometry" />
        </mxCell>
        <mxCell id="LyMC56T-BypBeBw1wxai-9" value="" style="endArrow=none;html=1;rounded=0;exitX=-0.21;exitY=0.809;exitDx=0;exitDy=0;exitPerimeter=0;labelBackgroundColor=none;strokeColor=#09555B;fontColor=default;" parent="WIyWlLk6GJQsqaUBKTNV-1" source="LyMC56T-BypBeBw1wxai-10" edge="1">
          <mxGeometry width="50" height="50" relative="1" as="geometry">
            <mxPoint x="831" y="644" as="sourcePoint" />
            <mxPoint x="831" y="594" as="targetPoint" />
          </mxGeometry>
        </mxCell>
        <mxCell id="LyMC56T-BypBeBw1wxai-10" value="1" style="text;html=1;align=center;verticalAlign=middle;whiteSpace=wrap;rounded=0;labelBackgroundColor=none;fontColor=#1A1A1A;" parent="WIyWlLk6GJQsqaUBKTNV-1" vertex="1">
          <mxGeometry x="833.1" y="600.5" width="9.79" height="30" as="geometry" />
        </mxCell>
        <mxCell id="LyMC56T-BypBeBw1wxai-11" value="" style="endArrow=none;html=1;rounded=0;entryX=-0.016;entryY=0.417;entryDx=0;entryDy=0;entryPerimeter=0;exitX=1.003;exitY=0.444;exitDx=0;exitDy=0;exitPerimeter=0;labelBackgroundColor=none;strokeColor=#09555B;fontColor=default;" parent="WIyWlLk6GJQsqaUBKTNV-1" source="OLpAq79K6-Yp3FqnE2U5-31" edge="1">
          <mxGeometry width="50" height="50" relative="1" as="geometry">
            <mxPoint x="349" y="385" as="sourcePoint" />
            <mxPoint x="434" y="384.19000000000005" as="targetPoint" />
          </mxGeometry>
        </mxCell>
        <mxCell id="LyMC56T-BypBeBw1wxai-12" value="*" style="text;html=1;align=center;verticalAlign=middle;whiteSpace=wrap;rounded=0;labelBackgroundColor=none;fontColor=#1A1A1A;" parent="WIyWlLk6GJQsqaUBKTNV-1" vertex="1">
          <mxGeometry x="415" y="376" width="20" height="8" as="geometry" />
        </mxCell>
        <mxCell id="LyMC56T-BypBeBw1wxai-17" value="1" style="text;html=1;align=center;verticalAlign=middle;whiteSpace=wrap;rounded=0;labelBackgroundColor=none;fontColor=#1A1A1A;" parent="WIyWlLk6GJQsqaUBKTNV-1" vertex="1">
          <mxGeometry x="339" y="372" width="30" height="10" as="geometry" />
        </mxCell>
        <mxCell id="LyMC56T-BypBeBw1wxai-23" value="1" style="text;html=1;align=center;verticalAlign=middle;whiteSpace=wrap;rounded=0;labelBackgroundColor=none;fontColor=#1A1A1A;" parent="WIyWlLk6GJQsqaUBKTNV-1" vertex="1">
          <mxGeometry x="755.73" y="683" width="4" height="4.5" as="geometry" />
        </mxCell>
        <mxCell id="LyMC56T-BypBeBw1wxai-24" value="" style="endArrow=none;html=1;rounded=0;exitX=0.998;exitY=0.327;exitDx=0;exitDy=0;exitPerimeter=0;entryX=-0.002;entryY=0.145;entryDx=0;entryDy=0;entryPerimeter=0;labelBackgroundColor=none;strokeColor=#09555B;fontColor=default;" parent="WIyWlLk6GJQsqaUBKTNV-1" source="OLpAq79K6-Yp3FqnE2U5-14" edge="1">
          <mxGeometry width="50" height="50" relative="1" as="geometry">
            <mxPoint x="924" y="703" as="sourcePoint" />
            <mxPoint x="950.72" y="684.25" as="targetPoint" />
          </mxGeometry>
        </mxCell>
        <mxCell id="LyMC56T-BypBeBw1wxai-38" value="" style="endArrow=none;html=1;rounded=0;entryX=-0.001;entryY=0.403;entryDx=0;entryDy=0;entryPerimeter=0;exitX=0.999;exitY=0.346;exitDx=0;exitDy=0;exitPerimeter=0;labelBackgroundColor=none;strokeColor=#09555B;fontColor=default;" parent="WIyWlLk6GJQsqaUBKTNV-1" source="OLpAq79K6-Yp3FqnE2U5-89" target="h2daB5j5cSeQjACsS8w_-8" edge="1">
          <mxGeometry width="50" height="50" relative="1" as="geometry">
            <mxPoint x="901" y="835" as="sourcePoint" />
            <mxPoint x="941" y="847" as="targetPoint" />
          </mxGeometry>
        </mxCell>
        <mxCell id="LyMC56T-BypBeBw1wxai-39" value="1" style="text;html=1;align=center;verticalAlign=middle;whiteSpace=wrap;rounded=0;labelBackgroundColor=none;fontColor=#1A1A1A;" parent="WIyWlLk6GJQsqaUBKTNV-1" vertex="1">
          <mxGeometry x="834.5" y="748" width="7" height="11" as="geometry" />
        </mxCell>
        <mxCell id="guZh6_O9uB6cwgefNXSr-0" value="" style="endArrow=none;html=1;rounded=0;entryX=-0.004;entryY=0.341;entryDx=0;entryDy=0;entryPerimeter=0;labelBackgroundColor=none;strokeColor=#09555B;fontColor=default;" parent="WIyWlLk6GJQsqaUBKTNV-1" edge="1">
          <mxGeometry width="50" height="50" relative="1" as="geometry">
            <mxPoint x="1092" y="693.87" as="sourcePoint" />
            <mxPoint x="1261.44" y="693.69" as="targetPoint" />
            <Array as="points">
              <mxPoint x="1132" y="693.87" />
            </Array>
          </mxGeometry>
        </mxCell>
        <mxCell id="guZh6_O9uB6cwgefNXSr-1" value="" style="endArrow=none;html=1;rounded=0;entryX=0.57;entryY=-0.004;entryDx=0;entryDy=0;exitX=0.447;exitY=0.997;exitDx=0;exitDy=0;exitPerimeter=0;entryPerimeter=0;labelBackgroundColor=none;strokeColor=#09555B;fontColor=default;" parent="WIyWlLk6GJQsqaUBKTNV-1" source="OLpAq79K6-Yp3FqnE2U5-14" edge="1">
          <mxGeometry width="50" height="50" relative="1" as="geometry">
            <mxPoint x="831.0799999999999" y="747.82" as="sourcePoint" />
            <mxPoint x="830.8" y="786.6400000000001" as="targetPoint" />
          </mxGeometry>
        </mxCell>
        <mxCell id="tS8xyD3pDplZ-1kiy1CS-4" value="*" style="text;html=1;align=center;verticalAlign=middle;whiteSpace=wrap;rounded=0;labelBackgroundColor=none;fontColor=#1A1A1A;" parent="WIyWlLk6GJQsqaUBKTNV-1" vertex="1">
          <mxGeometry x="833.79" y="782" width="10" height="2" as="geometry" />
        </mxCell>
        <mxCell id="YC3fZK0bblHr7PhcaJ9b-2" value="1" style="text;html=1;align=center;verticalAlign=middle;whiteSpace=wrap;rounded=0;labelBackgroundColor=none;fontColor=#1A1A1A;" parent="WIyWlLk6GJQsqaUBKTNV-1" vertex="1">
          <mxGeometry x="927" y="817" width="30" height="20" as="geometry" />
        </mxCell>
        <mxCell id="YC3fZK0bblHr7PhcaJ9b-3" value="1" style="text;html=1;align=center;verticalAlign=middle;whiteSpace=wrap;rounded=0;labelBackgroundColor=none;fontColor=#1A1A1A;" parent="WIyWlLk6GJQsqaUBKTNV-1" vertex="1">
          <mxGeometry x="937.79" y="672" width="14" height="10" as="geometry" />
        </mxCell>
        <mxCell id="YC3fZK0bblHr7PhcaJ9b-4" value="*" style="text;html=1;align=center;verticalAlign=middle;whiteSpace=wrap;rounded=0;labelBackgroundColor=none;fontColor=#1A1A1A;" parent="WIyWlLk6GJQsqaUBKTNV-1" vertex="1">
          <mxGeometry x="910" y="681" width="6.5" height="2" as="geometry" />
        </mxCell>
        <mxCell id="p8ek3zYSkrZ3l4gXPesr-0" value="Event" style="swimlane;fontStyle=0;childLayout=stackLayout;horizontal=1;startSize=30;horizontalStack=0;resizeParent=1;resizeParentMax=0;resizeLast=0;collapsible=1;marginBottom=0;whiteSpace=wrap;html=1;labelBackgroundColor=none;fillColor=#FAD9D5;strokeColor=#D0CEE2;fontColor=#1A1A1A;rounded=0;" parent="WIyWlLk6GJQsqaUBKTNV-1" vertex="1">
          <mxGeometry x="951.79" y="654.5" width="140" height="80" as="geometry" />
        </mxCell>
        <mxCell id="p8ek3zYSkrZ3l4gXPesr-1" value="&lt;div&gt;Budget&lt;/div&gt;&lt;div&gt;Responsible Entity&lt;/div&gt;&lt;div&gt;Location&lt;/div&gt;" style="text;strokeColor=none;fillColor=none;align=left;verticalAlign=middle;spacingLeft=4;spacingRight=4;overflow=hidden;points=[[0,0.5],[1,0.5]];portConstraint=eastwest;rotatable=0;whiteSpace=wrap;html=1;labelBackgroundColor=none;fontColor=#1A1A1A;rounded=0;" parent="p8ek3zYSkrZ3l4gXPesr-0" vertex="1">
          <mxGeometry y="30" width="140" height="50" as="geometry" />
        </mxCell>
        <mxCell id="p8ek3zYSkrZ3l4gXPesr-8" value="*" style="text;html=1;align=center;verticalAlign=middle;whiteSpace=wrap;rounded=0;labelBackgroundColor=none;fontColor=#1A1A1A;" parent="WIyWlLk6GJQsqaUBKTNV-1" vertex="1">
          <mxGeometry x="1029" y="554" width="1" height="4" as="geometry" />
        </mxCell>
        <mxCell id="p8ek3zYSkrZ3l4gXPesr-10" value="Sponsor" style="swimlane;fontStyle=0;childLayout=stackLayout;horizontal=1;startSize=30;horizontalStack=0;resizeParent=1;resizeParentMax=0;resizeLast=0;collapsible=1;marginBottom=0;whiteSpace=wrap;html=1;labelBackgroundColor=none;fillColor=#FAD9D5;strokeColor=#D0CEE2;fontColor=#1A1A1A;rounded=0;" parent="WIyWlLk6GJQsqaUBKTNV-1" vertex="1">
          <mxGeometry x="957" y="439" width="140" height="110" as="geometry" />
        </mxCell>
        <mxCell id="p8ek3zYSkrZ3l4gXPesr-11" value="&lt;div&gt;Company&lt;/div&gt;&lt;div&gt;Email&lt;/div&gt;&lt;div&gt;Value&lt;/div&gt;&lt;div&gt;Resources&lt;/div&gt;&lt;div style=&quot;&quot;&gt;Agreements&lt;/div&gt;" style="text;strokeColor=none;fillColor=none;align=left;verticalAlign=middle;spacingLeft=4;spacingRight=4;overflow=hidden;points=[[0,0.5],[1,0.5]];portConstraint=eastwest;rotatable=0;whiteSpace=wrap;html=1;labelBackgroundColor=none;fontColor=#1A1A1A;rounded=0;" parent="p8ek3zYSkrZ3l4gXPesr-10" vertex="1">
          <mxGeometry y="30" width="140" height="80" as="geometry" />
        </mxCell>
        <mxCell id="vchGi_3dxTFBsC3WIeSS-1" value="" style="whiteSpace=wrap;html=1;shape=mxgraph.basic.document;labelBackgroundColor=none;fillColor=#FAD9D5;strokeColor=#D0CEE2;fontColor=#1A1A1A;rounded=0;" vertex="1" parent="WIyWlLk6GJQsqaUBKTNV-1">
          <mxGeometry x="29" y="288" width="130" height="30" as="geometry" />
        </mxCell>
        <mxCell id="vchGi_3dxTFBsC3WIeSS-3" value="&lt;span style=&quot;background-color: initial;&quot;&gt;&amp;nbsp;&lt;/span&gt;&lt;div&gt;-age NOT_NULL CHECK (age&amp;gt;=10 AND age&amp;lt;100)&amp;nbsp;&lt;/div&gt;" style="text;html=1;align=left;verticalAlign=middle;whiteSpace=wrap;rounded=0;labelBackgroundColor=none;fontColor=#1A1A1A;" vertex="1" parent="WIyWlLk6GJQsqaUBKTNV-1">
          <mxGeometry x="10" y="352" width="160" height="30" as="geometry" />
        </mxCell>
        <mxCell id="vchGi_3dxTFBsC3WIeSS-4" value="" style="whiteSpace=wrap;html=1;shape=mxgraph.basic.document;labelBackgroundColor=none;fillColor=#FAD9D5;strokeColor=#D0CEE2;fontColor=#1A1A1A;rounded=0;" vertex="1" parent="WIyWlLk6GJQsqaUBKTNV-1">
          <mxGeometry x="262" y="210" width="170" height="31" as="geometry" />
        </mxCell>
        <mxCell id="vchGi_3dxTFBsC3WIeSS-11" value="" style="endArrow=none;dashed=1;html=1;rounded=0;exitX=0.568;exitY=1.015;exitDx=0;exitDy=0;exitPerimeter=0;labelBackgroundColor=none;strokeColor=#09555B;fontColor=default;" edge="1" parent="WIyWlLk6GJQsqaUBKTNV-1" source="vchGi_3dxTFBsC3WIeSS-1">
          <mxGeometry width="50" height="50" relative="1" as="geometry">
            <mxPoint x="157" y="400" as="sourcePoint" />
            <mxPoint x="207" y="350" as="targetPoint" />
          </mxGeometry>
        </mxCell>
        <mxCell id="vchGi_3dxTFBsC3WIeSS-12" value="&lt;span style=&quot;background-color: initial;&quot;&gt;&amp;nbsp;&lt;/span&gt;&lt;div&gt;-collection NOT_NULL&amp;nbsp;&amp;nbsp;&lt;/div&gt;" style="text;html=1;align=left;verticalAlign=middle;whiteSpace=wrap;rounded=0;labelBackgroundColor=none;fontColor=#1A1A1A;" vertex="1" parent="WIyWlLk6GJQsqaUBKTNV-1">
          <mxGeometry x="272" y="202" width="160" height="30" as="geometry" />
        </mxCell>
        <mxCell id="vchGi_3dxTFBsC3WIeSS-13" value="" style="endArrow=none;dashed=1;html=1;rounded=0;exitX=0.5;exitY=1;exitDx=0;exitDy=0;exitPerimeter=0;entryX=0.5;entryY=0;entryDx=0;entryDy=0;labelBackgroundColor=none;strokeColor=#09555B;fontColor=default;" edge="1" parent="WIyWlLk6GJQsqaUBKTNV-1" source="vchGi_3dxTFBsC3WIeSS-4">
          <mxGeometry width="50" height="50" relative="1" as="geometry">
            <mxPoint x="449" y="273.5" as="sourcePoint" />
            <mxPoint x="454" y="304" as="targetPoint" />
          </mxGeometry>
        </mxCell>
        <mxCell id="vchGi_3dxTFBsC3WIeSS-14" value="&lt;div&gt;&lt;span style=&quot;background-color: initial;&quot;&gt;-email NOT_NULL&amp;nbsp;&lt;/span&gt;&lt;br&gt;&lt;/div&gt;&lt;div&gt;&lt;br&gt;&lt;/div&gt;" style="text;html=1;align=left;verticalAlign=middle;whiteSpace=wrap;rounded=0;labelBackgroundColor=none;fontColor=#1A1A1A;" vertex="1" parent="WIyWlLk6GJQsqaUBKTNV-1">
          <mxGeometry x="929.37" y="214" width="116" height="15" as="geometry" />
        </mxCell>
        <mxCell id="vchGi_3dxTFBsC3WIeSS-17" value="&lt;div&gt;&lt;span style=&quot;background-color: initial;&quot;&gt;-email NOT_NULL&lt;/span&gt;&lt;br&gt;&lt;/div&gt;" style="text;html=1;align=left;verticalAlign=middle;whiteSpace=wrap;rounded=0;labelBackgroundColor=none;fontColor=#1A1A1A;" vertex="1" parent="WIyWlLk6GJQsqaUBKTNV-1">
          <mxGeometry x="1160.65" y="348" width="118.43" height="30" as="geometry" />
        </mxCell>
        <mxCell id="vchGi_3dxTFBsC3WIeSS-23" value="-brand NOT_NULL&lt;div&gt;&lt;br&gt;&lt;/div&gt;" style="text;html=1;align=left;verticalAlign=middle;whiteSpace=wrap;rounded=0;labelBackgroundColor=none;fontColor=#1A1A1A;" vertex="1" parent="WIyWlLk6GJQsqaUBKTNV-1">
          <mxGeometry x="246" y="527.5" width="118.43" height="17" as="geometry" />
        </mxCell>
        <mxCell id="vchGi_3dxTFBsC3WIeSS-24" value="-representative NOT_NULL&lt;div&gt;&lt;br&gt;&lt;/div&gt;" style="text;html=1;align=left;verticalAlign=middle;whiteSpace=wrap;rounded=0;labelBackgroundColor=none;fontColor=#1A1A1A;" vertex="1" parent="WIyWlLk6GJQsqaUBKTNV-1">
          <mxGeometry x="235" y="643" width="156" height="23.5" as="geometry" />
        </mxCell>
        <mxCell id="vchGi_3dxTFBsC3WIeSS-25" value="&lt;div&gt;-status NOT_NULL&lt;/div&gt;&lt;div&gt;&lt;br&gt;&lt;/div&gt;" style="text;html=1;align=left;verticalAlign=middle;whiteSpace=wrap;rounded=0;labelBackgroundColor=none;fontColor=#1A1A1A;" vertex="1" parent="WIyWlLk6GJQsqaUBKTNV-1">
          <mxGeometry x="816.91" y="900.35" width="110" height="12.65" as="geometry" />
        </mxCell>
        <mxCell id="vchGi_3dxTFBsC3WIeSS-26" value="-order&lt;span style=&quot;color: rgba(0, 0, 0, 0); font-family: monospace; font-size: 0px; text-wrap: nowrap;&quot;&gt;%3CmxGraphModel%3E%3Croot%3E%3CmxCell%20id%3D%220%22%2F%3E%3CmxCell%20id%3D%221%22%20parent%3D%220%22%2F%3E%3CmxCell%20id%3D%222%22%20value%3D%22-model%20NOT_NULL%26lt%3Bdiv%26gt%3B-function%20NOT_NULL%26lt%3B%2Fdiv%26gt%3B%26lt%3Bdiv%26gt%3B-email%20NOT_NULL%26lt%3B%2Fdiv%26gt%3B%22%20style%3D%22text%3Bhtml%3D1%3Balign%3Dleft%3BverticalAlign%3Dmiddle%3BwhiteSpace%3Dwrap%3Brounded%3D0%3B%22%20vertex%3D%221%22%20parent%3D%221%22%3E%3CmxGeometry%20x%3D%221021.57%22%20y%3D%22260%22%20width%3D%22118.43%22%20height%3D%2230%22%20as%3D%22geometry%22%2F%3E%3C%2FmxCell%3E%3C%2Froot%3E%3C%2FmxGraphModel%3E&lt;/span&gt;&amp;nbsp;NOT_NULL CHECK (order &amp;gt;0 AND order&amp;lt;100)" style="text;html=1;align=left;verticalAlign=middle;whiteSpace=wrap;rounded=0;labelBackgroundColor=none;fontColor=#1A1A1A;" vertex="1" parent="WIyWlLk6GJQsqaUBKTNV-1">
          <mxGeometry x="627.5700000000003" y="538.5" width="118.43" height="30" as="geometry" />
        </mxCell>
        <mxCell id="vchGi_3dxTFBsC3WIeSS-28" value="&lt;div&gt;&lt;br&gt;&lt;/div&gt;&lt;div&gt;-InstagramHandle NOT_NULL&lt;/div&gt;" style="text;html=1;align=left;verticalAlign=middle;whiteSpace=wrap;rounded=0;labelBackgroundColor=none;fontColor=#1A1A1A;" vertex="1" parent="WIyWlLk6GJQsqaUBKTNV-1">
          <mxGeometry x="780.79" y="1110" width="190" height="20" as="geometry" />
        </mxCell>
        <mxCell id="vchGi_3dxTFBsC3WIeSS-29" value="&lt;div&gt;&lt;br&gt;&lt;/div&gt;&lt;div&gt;-MeansofCommunication NOT_NULL&lt;/div&gt;" style="text;html=1;align=left;verticalAlign=middle;whiteSpace=wrap;rounded=0;labelBackgroundColor=none;fontColor=#1A1A1A;" vertex="1" parent="WIyWlLk6GJQsqaUBKTNV-1">
          <mxGeometry x="1317.86" y="1009.5" width="220" height="20" as="geometry" />
        </mxCell>
        <mxCell id="vchGi_3dxTFBsC3WIeSS-31" value="&lt;span style=&quot;text-align: left;&quot;&gt;-email NOT_NULL&amp;nbsp;&lt;/span&gt;" style="text;html=1;align=center;verticalAlign=middle;whiteSpace=wrap;rounded=0;labelBackgroundColor=none;fontColor=#1A1A1A;" vertex="1" parent="WIyWlLk6GJQsqaUBKTNV-1">
          <mxGeometry x="39" y="288" width="110" height="30" as="geometry" />
        </mxCell>
        <mxCell id="vchGi_3dxTFBsC3WIeSS-36" value="" style="endArrow=none;dashed=1;html=1;rounded=0;exitX=0.568;exitY=1.015;exitDx=0;exitDy=0;exitPerimeter=0;labelBackgroundColor=none;strokeColor=#09555B;fontColor=default;" edge="1" parent="WIyWlLk6GJQsqaUBKTNV-1" source="vchGi_3dxTFBsC3WIeSS-35">
          <mxGeometry width="50" height="50" relative="1" as="geometry">
            <mxPoint x="158" y="476" as="sourcePoint" />
            <mxPoint x="208" y="426" as="targetPoint" />
          </mxGeometry>
        </mxCell>
        <mxCell id="vchGi_3dxTFBsC3WIeSS-38" value="" style="whiteSpace=wrap;html=1;shape=mxgraph.basic.document;labelBackgroundColor=none;fillColor=#FAD9D5;strokeColor=#D0CEE2;fontColor=#1A1A1A;rounded=0;" vertex="1" parent="WIyWlLk6GJQsqaUBKTNV-1">
          <mxGeometry x="441" y="234" width="135" height="29" as="geometry" />
        </mxCell>
        <mxCell id="vchGi_3dxTFBsC3WIeSS-39" value="" style="endArrow=none;dashed=1;html=1;rounded=0;exitX=0.5;exitY=1;exitDx=0;exitDy=0;exitPerimeter=0;entryX=0.532;entryY=-0.002;entryDx=0;entryDy=0;entryPerimeter=0;labelBackgroundColor=none;strokeColor=#09555B;fontColor=default;" edge="1" parent="WIyWlLk6GJQsqaUBKTNV-1" source="vchGi_3dxTFBsC3WIeSS-38" target="OLpAq79K6-Yp3FqnE2U5-23">
          <mxGeometry width="50" height="50" relative="1" as="geometry">
            <mxPoint x="521" y="273.5" as="sourcePoint" />
            <mxPoint x="526" y="304" as="targetPoint" />
          </mxGeometry>
        </mxCell>
        <mxCell id="vchGi_3dxTFBsC3WIeSS-40" value="&lt;div style=&quot;text-align: left;&quot;&gt;&amp;nbsp;&lt;/div&gt;&lt;div style=&quot;text-align: left;&quot;&gt;-designer NOT_NULL&amp;nbsp;&lt;/div&gt;" style="text;html=1;align=center;verticalAlign=middle;whiteSpace=wrap;rounded=0;labelBackgroundColor=none;fontColor=#1A1A1A;" vertex="1" parent="WIyWlLk6GJQsqaUBKTNV-1">
          <mxGeometry x="436" y="235" width="140" height="12" as="geometry" />
        </mxCell>
        <mxCell id="vchGi_3dxTFBsC3WIeSS-41" value="" style="whiteSpace=wrap;html=1;shape=mxgraph.basic.document;labelBackgroundColor=none;fillColor=#FAD9D5;strokeColor=#D0CEE2;fontColor=#1A1A1A;rounded=0;" vertex="1" parent="WIyWlLk6GJQsqaUBKTNV-1">
          <mxGeometry x="535.43" y="112" width="148.72" height="42" as="geometry" />
        </mxCell>
        <mxCell id="vchGi_3dxTFBsC3WIeSS-43" value="" style="endArrow=none;dashed=1;html=1;rounded=0;exitX=0.811;exitY=1.028;exitDx=0;exitDy=0;exitPerimeter=0;entryX=0.229;entryY=0;entryDx=0;entryDy=0;entryPerimeter=0;labelBackgroundColor=none;strokeColor=#09555B;fontColor=default;" edge="1" parent="WIyWlLk6GJQsqaUBKTNV-1" source="vchGi_3dxTFBsC3WIeSS-41" target="OLpAq79K6-Yp3FqnE2U5-38">
          <mxGeometry width="50" height="50" relative="1" as="geometry">
            <mxPoint x="831.28" y="216.5" as="sourcePoint" />
            <mxPoint x="836.28" y="247" as="targetPoint" />
          </mxGeometry>
        </mxCell>
        <mxCell id="vchGi_3dxTFBsC3WIeSS-42" value="-age NOT_NULL CHECK&amp;nbsp; &amp;nbsp; &amp;nbsp; (age &amp;gt; 16 AND age &amp;lt;100)" style="text;html=1;align=left;verticalAlign=middle;whiteSpace=wrap;rounded=0;labelBackgroundColor=none;fontColor=#1A1A1A;" vertex="1" parent="WIyWlLk6GJQsqaUBKTNV-1">
          <mxGeometry x="536.43" y="119" width="153.72" height="30" as="geometry" />
        </mxCell>
        <mxCell id="vchGi_3dxTFBsC3WIeSS-47" value="" style="whiteSpace=wrap;html=1;shape=mxgraph.basic.document;labelBackgroundColor=none;fillColor=#FAD9D5;strokeColor=#D0CEE2;fontColor=#1A1A1A;rounded=0;" vertex="1" parent="WIyWlLk6GJQsqaUBKTNV-1">
          <mxGeometry x="556" y="32" width="173" height="60" as="geometry" />
        </mxCell>
        <mxCell id="vchGi_3dxTFBsC3WIeSS-48" value="&lt;div&gt;-bust, waist, hips NOT_NULL CHECK(bust, waits, hips&amp;gt;10 AND bust, waist, hips&amp;lt;100)&lt;/div&gt;&lt;div&gt;&lt;br&gt;&lt;/div&gt;" style="text;html=1;align=left;verticalAlign=middle;whiteSpace=wrap;rounded=0;labelBackgroundColor=none;fontColor=#1A1A1A;" vertex="1" parent="WIyWlLk6GJQsqaUBKTNV-1">
          <mxGeometry x="558" y="53" width="162" height="30" as="geometry" />
        </mxCell>
        <mxCell id="vchGi_3dxTFBsC3WIeSS-49" value="" style="endArrow=none;dashed=1;html=1;rounded=0;exitX=0.407;exitY=-0.006;exitDx=0;exitDy=0;exitPerimeter=0;entryX=0.903;entryY=1.046;entryDx=0;entryDy=0;entryPerimeter=0;labelBackgroundColor=none;strokeColor=#09555B;fontColor=default;" edge="1" parent="WIyWlLk6GJQsqaUBKTNV-1" source="OLpAq79K6-Yp3FqnE2U5-38" target="vchGi_3dxTFBsC3WIeSS-47">
          <mxGeometry width="50" height="50" relative="1" as="geometry">
            <mxPoint x="813" y="202" as="sourcePoint" />
            <mxPoint x="693" y="102" as="targetPoint" />
          </mxGeometry>
        </mxCell>
        <mxCell id="vchGi_3dxTFBsC3WIeSS-57" value="" style="whiteSpace=wrap;html=1;shape=mxgraph.basic.document;labelBackgroundColor=none;fillColor=#FAD9D5;strokeColor=#D0CEE2;fontColor=#1A1A1A;rounded=0;" vertex="1" parent="WIyWlLk6GJQsqaUBKTNV-1">
          <mxGeometry x="756.37" y="53" width="173" height="40" as="geometry" />
        </mxCell>
        <mxCell id="vchGi_3dxTFBsC3WIeSS-58" value="&lt;div&gt;&lt;div&gt;&lt;span style=&quot;background-color: initial;&quot;&gt;-height NOT_NULL CHECK (height&amp;gt;100 AND height&amp;lt;250)&lt;/span&gt;&lt;br&gt;&lt;/div&gt;&lt;/div&gt;&lt;div&gt;&lt;span style=&quot;background-color: initial;&quot;&gt;&lt;br&gt;&lt;/span&gt;&lt;/div&gt;" style="text;html=1;align=left;verticalAlign=middle;whiteSpace=wrap;rounded=0;labelBackgroundColor=none;fontColor=#1A1A1A;" vertex="1" parent="WIyWlLk6GJQsqaUBKTNV-1">
          <mxGeometry x="758.37" y="67" width="162" height="30" as="geometry" />
        </mxCell>
        <mxCell id="vchGi_3dxTFBsC3WIeSS-59" value="" style="endArrow=none;dashed=1;html=1;rounded=0;entryX=0.5;entryY=1;entryDx=0;entryDy=0;entryPerimeter=0;exitX=0.5;exitY=0;exitDx=0;exitDy=0;labelBackgroundColor=none;strokeColor=#09555B;fontColor=default;" edge="1" parent="WIyWlLk6GJQsqaUBKTNV-1" target="vchGi_3dxTFBsC3WIeSS-57" source="OLpAq79K6-Yp3FqnE2U5-38">
          <mxGeometry width="50" height="50" relative="1" as="geometry">
            <mxPoint x="981" y="298" as="sourcePoint" />
            <mxPoint x="1058" y="172" as="targetPoint" />
          </mxGeometry>
        </mxCell>
        <mxCell id="vchGi_3dxTFBsC3WIeSS-61" value="" style="whiteSpace=wrap;html=1;shape=mxgraph.basic.document;labelBackgroundColor=none;fillColor=#FAD9D5;strokeColor=#D0CEE2;fontColor=#1A1A1A;rounded=0;" vertex="1" parent="WIyWlLk6GJQsqaUBKTNV-1">
          <mxGeometry x="854.3599999999999" y="132" width="188" height="40" as="geometry" />
        </mxCell>
        <mxCell id="vchGi_3dxTFBsC3WIeSS-62" value="&lt;div&gt;&lt;div&gt;&lt;div&gt;&lt;span style=&quot;background-color: initial;&quot;&gt;-weight NOT_NULL CHECK (weight &amp;gt; 10 AND weight &amp;lt;1000)&lt;/span&gt;&lt;br&gt;&lt;/div&gt;&lt;/div&gt;&lt;/div&gt;&lt;div&gt;&lt;span style=&quot;background-color: initial;&quot;&gt;&lt;br&gt;&lt;/span&gt;&lt;/div&gt;" style="text;html=1;align=left;verticalAlign=middle;whiteSpace=wrap;rounded=0;labelBackgroundColor=none;fontColor=#1A1A1A;" vertex="1" parent="WIyWlLk6GJQsqaUBKTNV-1">
          <mxGeometry x="857.3599999999999" y="146" width="176" height="30" as="geometry" />
        </mxCell>
        <mxCell id="vchGi_3dxTFBsC3WIeSS-63" value="" style="endArrow=none;dashed=1;html=1;rounded=0;entryX=0.5;entryY=1;entryDx=0;entryDy=0;entryPerimeter=0;exitX=0.673;exitY=-0.005;exitDx=0;exitDy=0;exitPerimeter=0;labelBackgroundColor=none;strokeColor=#09555B;fontColor=default;" edge="1" parent="WIyWlLk6GJQsqaUBKTNV-1" target="vchGi_3dxTFBsC3WIeSS-61" source="OLpAq79K6-Yp3FqnE2U5-38">
          <mxGeometry width="50" height="50" relative="1" as="geometry">
            <mxPoint x="846.5" y="282" as="sourcePoint" />
            <mxPoint x="1096.5" y="170" as="targetPoint" />
          </mxGeometry>
        </mxCell>
        <mxCell id="vchGi_3dxTFBsC3WIeSS-66" value="" style="endArrow=none;dashed=1;html=1;rounded=0;labelBackgroundColor=none;strokeColor=#09555B;fontColor=default;" edge="1" parent="WIyWlLk6GJQsqaUBKTNV-1">
          <mxGeometry width="50" height="50" relative="1" as="geometry">
            <mxPoint x="876.79" y="281" as="sourcePoint" />
            <mxPoint x="926.79" y="231" as="targetPoint" />
          </mxGeometry>
        </mxCell>
        <mxCell id="vchGi_3dxTFBsC3WIeSS-67" value="" style="whiteSpace=wrap;html=1;shape=mxgraph.basic.document;labelBackgroundColor=none;fillColor=#FAD9D5;strokeColor=#D0CEE2;fontColor=#1A1A1A;rounded=0;" vertex="1" parent="WIyWlLk6GJQsqaUBKTNV-1">
          <mxGeometry x="1158" y="262" width="116.57" height="29" as="geometry" />
        </mxCell>
        <mxCell id="vchGi_3dxTFBsC3WIeSS-68" value="&lt;div&gt;&lt;br&gt;&lt;/div&gt;" style="text;html=1;align=left;verticalAlign=middle;whiteSpace=wrap;rounded=0;labelBackgroundColor=none;fontColor=#1A1A1A;" vertex="1" parent="WIyWlLk6GJQsqaUBKTNV-1">
          <mxGeometry x="1161.58" y="273" width="116" height="15" as="geometry" />
        </mxCell>
        <mxCell id="vchGi_3dxTFBsC3WIeSS-69" value="&lt;span style=&quot;text-align: left;&quot;&gt;-model NOT_NULL&lt;/span&gt;" style="text;html=1;align=center;verticalAlign=middle;whiteSpace=wrap;rounded=0;labelBackgroundColor=none;fontColor=#1A1A1A;" vertex="1" parent="WIyWlLk6GJQsqaUBKTNV-1">
          <mxGeometry x="1159" y="261" width="110" height="30" as="geometry" />
        </mxCell>
        <mxCell id="vchGi_3dxTFBsC3WIeSS-74" value="" style="whiteSpace=wrap;html=1;shape=mxgraph.basic.document;labelBackgroundColor=none;fillColor=#FAD9D5;strokeColor=#D0CEE2;fontColor=#1A1A1A;rounded=0;" vertex="1" parent="WIyWlLk6GJQsqaUBKTNV-1">
          <mxGeometry x="1156.94" y="304" width="126.57" height="29" as="geometry" />
        </mxCell>
        <mxCell id="vchGi_3dxTFBsC3WIeSS-75" value="&lt;div&gt;&lt;br&gt;&lt;/div&gt;" style="text;html=1;align=left;verticalAlign=middle;whiteSpace=wrap;rounded=0;labelBackgroundColor=none;fontColor=#1A1A1A;" vertex="1" parent="WIyWlLk6GJQsqaUBKTNV-1">
          <mxGeometry x="1168.23" y="314.5" width="116" height="15" as="geometry" />
        </mxCell>
        <mxCell id="vchGi_3dxTFBsC3WIeSS-80" value="&lt;div style=&quot;text-align: left;&quot;&gt;-function NOT_NULL&lt;/div&gt;&lt;div&gt;&lt;br&gt;&lt;/div&gt;" style="text;html=1;align=center;verticalAlign=middle;whiteSpace=wrap;rounded=0;labelBackgroundColor=none;fontColor=#1A1A1A;" vertex="1" parent="WIyWlLk6GJQsqaUBKTNV-1">
          <mxGeometry x="1156.94" y="315" width="120" height="20" as="geometry" />
        </mxCell>
        <mxCell id="vchGi_3dxTFBsC3WIeSS-81" value="" style="endArrow=none;dashed=1;html=1;rounded=0;labelBackgroundColor=none;strokeColor=#09555B;fontColor=default;" edge="1" parent="WIyWlLk6GJQsqaUBKTNV-1">
          <mxGeometry width="50" height="50" relative="1" as="geometry">
            <mxPoint x="1107.79" y="331" as="sourcePoint" />
            <mxPoint x="1157.79" y="281" as="targetPoint" />
          </mxGeometry>
        </mxCell>
        <mxCell id="vchGi_3dxTFBsC3WIeSS-83" value="" style="endArrow=none;dashed=1;html=1;rounded=0;labelBackgroundColor=none;strokeColor=#09555B;fontColor=default;" edge="1" parent="WIyWlLk6GJQsqaUBKTNV-1">
          <mxGeometry width="50" height="50" relative="1" as="geometry">
            <mxPoint x="1107.79" y="372" as="sourcePoint" />
            <mxPoint x="1157.79" y="322" as="targetPoint" />
          </mxGeometry>
        </mxCell>
        <mxCell id="vchGi_3dxTFBsC3WIeSS-84" value="" style="endArrow=none;dashed=1;html=1;rounded=0;labelBackgroundColor=none;strokeColor=#09555B;fontColor=default;" edge="1" parent="WIyWlLk6GJQsqaUBKTNV-1">
          <mxGeometry width="50" height="50" relative="1" as="geometry">
            <mxPoint x="1108" y="411" as="sourcePoint" />
            <mxPoint x="1158" y="361" as="targetPoint" />
          </mxGeometry>
        </mxCell>
        <mxCell id="vchGi_3dxTFBsC3WIeSS-85" value="" style="whiteSpace=wrap;html=1;shape=mxgraph.basic.document;labelBackgroundColor=none;fillColor=#FAD9D5;strokeColor=#D0CEE2;fontColor=#1A1A1A;rounded=0;" vertex="1" parent="WIyWlLk6GJQsqaUBKTNV-1">
          <mxGeometry x="1338.46" y="428" width="116.57" height="29" as="geometry" />
        </mxCell>
        <mxCell id="vchGi_3dxTFBsC3WIeSS-86" value="&lt;div&gt;&lt;span style=&quot;background-color: initial;&quot;&gt;-value NOT_NULL&lt;/span&gt;&lt;br&gt;&lt;/div&gt;" style="text;html=1;align=left;verticalAlign=middle;whiteSpace=wrap;rounded=0;labelBackgroundColor=none;fontColor=#1A1A1A;" vertex="1" parent="WIyWlLk6GJQsqaUBKTNV-1">
          <mxGeometry x="1342.17" y="427" width="118.43" height="30" as="geometry" />
        </mxCell>
        <mxCell id="vchGi_3dxTFBsC3WIeSS-87" value="" style="whiteSpace=wrap;html=1;shape=mxgraph.basic.document;labelBackgroundColor=none;fillColor=#FAD9D5;strokeColor=#D0CEE2;fontColor=#1A1A1A;rounded=0;" vertex="1" parent="WIyWlLk6GJQsqaUBKTNV-1">
          <mxGeometry x="1338.38" y="353" width="129.79" height="29" as="geometry" />
        </mxCell>
        <mxCell id="vchGi_3dxTFBsC3WIeSS-90" value="" style="whiteSpace=wrap;html=1;shape=mxgraph.basic.document;labelBackgroundColor=none;fillColor=#FAD9D5;strokeColor=#D0CEE2;fontColor=#1A1A1A;rounded=0;" vertex="1" parent="WIyWlLk6GJQsqaUBKTNV-1">
          <mxGeometry x="1338.17" y="390" width="126.57" height="29" as="geometry" />
        </mxCell>
        <mxCell id="vchGi_3dxTFBsC3WIeSS-91" value="&lt;div&gt;&lt;br&gt;&lt;/div&gt;" style="text;html=1;align=left;verticalAlign=middle;whiteSpace=wrap;rounded=0;labelBackgroundColor=none;fontColor=#1A1A1A;" vertex="1" parent="WIyWlLk6GJQsqaUBKTNV-1">
          <mxGeometry x="1349.46" y="400.5" width="116" height="15" as="geometry" />
        </mxCell>
        <mxCell id="vchGi_3dxTFBsC3WIeSS-92" value="&lt;div style=&quot;text-align: left;&quot;&gt;-email NOT_NULL&lt;br&gt;&lt;/div&gt;" style="text;html=1;align=center;verticalAlign=middle;whiteSpace=wrap;rounded=0;labelBackgroundColor=none;fontColor=#1A1A1A;" vertex="1" parent="WIyWlLk6GJQsqaUBKTNV-1">
          <mxGeometry x="1333.17" y="395" width="120" height="20" as="geometry" />
        </mxCell>
        <mxCell id="vchGi_3dxTFBsC3WIeSS-93" value="" style="endArrow=none;dashed=1;html=1;rounded=0;entryX=-0.024;entryY=0.513;entryDx=0;entryDy=0;entryPerimeter=0;exitX=0.999;exitY=0.03;exitDx=0;exitDy=0;exitPerimeter=0;labelBackgroundColor=none;strokeColor=#09555B;fontColor=default;" edge="1" parent="WIyWlLk6GJQsqaUBKTNV-1" source="p8ek3zYSkrZ3l4gXPesr-11" target="vchGi_3dxTFBsC3WIeSS-98">
          <mxGeometry width="50" height="50" relative="1" as="geometry">
            <mxPoint x="1096.94" y="467" as="sourcePoint" />
            <mxPoint x="1146.94" y="417" as="targetPoint" />
          </mxGeometry>
        </mxCell>
        <mxCell id="vchGi_3dxTFBsC3WIeSS-94" value="" style="endArrow=none;dashed=1;html=1;rounded=0;entryX=0.026;entryY=0.466;entryDx=0;entryDy=0;entryPerimeter=0;exitX=1.01;exitY=0.257;exitDx=0;exitDy=0;exitPerimeter=0;labelBackgroundColor=none;strokeColor=#09555B;fontColor=default;" edge="1" parent="WIyWlLk6GJQsqaUBKTNV-1" source="p8ek3zYSkrZ3l4gXPesr-11" target="vchGi_3dxTFBsC3WIeSS-92">
          <mxGeometry width="50" height="50" relative="1" as="geometry">
            <mxPoint x="1098" y="482" as="sourcePoint" />
            <mxPoint x="1305.6" y="428.08000000000004" as="targetPoint" />
          </mxGeometry>
        </mxCell>
        <mxCell id="vchGi_3dxTFBsC3WIeSS-95" value="" style="endArrow=none;dashed=1;html=1;rounded=0;entryX=0;entryY=0.5;entryDx=0;entryDy=0;entryPerimeter=0;exitX=1.005;exitY=0.636;exitDx=0;exitDy=0;exitPerimeter=0;labelBackgroundColor=none;strokeColor=#09555B;fontColor=default;" edge="1" parent="WIyWlLk6GJQsqaUBKTNV-1" source="p8ek3zYSkrZ3l4gXPesr-11" target="vchGi_3dxTFBsC3WIeSS-101">
          <mxGeometry width="50" height="50" relative="1" as="geometry">
            <mxPoint x="1097.15" y="547" as="sourcePoint" />
            <mxPoint x="1147.15" y="497" as="targetPoint" />
          </mxGeometry>
        </mxCell>
        <mxCell id="vchGi_3dxTFBsC3WIeSS-98" value="&lt;span style=&quot;text-align: left;&quot;&gt;-company NOT_NULL&lt;/span&gt;" style="text;html=1;align=center;verticalAlign=middle;whiteSpace=wrap;rounded=0;labelBackgroundColor=none;fontColor=#1A1A1A;" vertex="1" parent="WIyWlLk6GJQsqaUBKTNV-1">
          <mxGeometry x="1337.46" y="352" width="130" height="30" as="geometry" />
        </mxCell>
        <mxCell id="vchGi_3dxTFBsC3WIeSS-101" value="&lt;div&gt;&lt;span style=&quot;text-align: left; background-color: initial;&quot;&gt;-resources NOT_NULL&lt;/span&gt;&lt;br&gt;&lt;/div&gt;" style="whiteSpace=wrap;html=1;shape=mxgraph.basic.document;labelBackgroundColor=none;fillColor=#FAD9D5;strokeColor=#D0CEE2;fontColor=#1A1A1A;rounded=0;" vertex="1" parent="WIyWlLk6GJQsqaUBKTNV-1">
          <mxGeometry x="1338.06" y="465" width="140.5" height="29" as="geometry" />
        </mxCell>
        <mxCell id="vchGi_3dxTFBsC3WIeSS-104" value="&lt;div style=&quot;text-align: left;&quot;&gt;-agreements NOT_NULL&lt;br&gt;&lt;/div&gt;" style="text;html=1;align=center;verticalAlign=middle;whiteSpace=wrap;rounded=0;labelBackgroundColor=none;fontColor=#1A1A1A;" vertex="1" parent="WIyWlLk6GJQsqaUBKTNV-1">
          <mxGeometry x="1342.17" y="506.5" width="137" height="20" as="geometry" />
        </mxCell>
        <mxCell id="vchGi_3dxTFBsC3WIeSS-105" value="" style="endArrow=none;dashed=1;html=1;rounded=0;entryX=-0.029;entryY=0.536;entryDx=0;entryDy=0;entryPerimeter=0;exitX=1;exitY=0.5;exitDx=0;exitDy=0;labelBackgroundColor=none;strokeColor=#09555B;fontColor=default;" edge="1" parent="WIyWlLk6GJQsqaUBKTNV-1" source="p8ek3zYSkrZ3l4gXPesr-11" target="vchGi_3dxTFBsC3WIeSS-85">
          <mxGeometry width="50" height="50" relative="1" as="geometry">
            <mxPoint x="1097" y="525" as="sourcePoint" />
            <mxPoint x="1147" y="475" as="targetPoint" />
          </mxGeometry>
        </mxCell>
        <mxCell id="vchGi_3dxTFBsC3WIeSS-106" value="" style="endArrow=none;dashed=1;html=1;rounded=0;entryX=-0.005;entryY=0.545;entryDx=0;entryDy=0;entryPerimeter=0;exitX=1.003;exitY=0.81;exitDx=0;exitDy=0;exitPerimeter=0;labelBackgroundColor=none;strokeColor=#09555B;fontColor=default;" edge="1" parent="WIyWlLk6GJQsqaUBKTNV-1" source="p8ek3zYSkrZ3l4gXPesr-11" target="vchGi_3dxTFBsC3WIeSS-102">
          <mxGeometry width="50" height="50" relative="1" as="geometry">
            <mxPoint x="1097" y="559" as="sourcePoint" />
            <mxPoint x="1147" y="509" as="targetPoint" />
          </mxGeometry>
        </mxCell>
        <mxCell id="vchGi_3dxTFBsC3WIeSS-111" value="" style="whiteSpace=wrap;html=1;shape=mxgraph.basic.document;labelBackgroundColor=none;fillColor=#FAD9D5;strokeColor=#D0CEE2;fontColor=#1A1A1A;rounded=0;" vertex="1" parent="WIyWlLk6GJQsqaUBKTNV-1">
          <mxGeometry x="1494" y="691.25" width="116.57" height="29" as="geometry" />
        </mxCell>
        <mxCell id="vchGi_3dxTFBsC3WIeSS-112" value="&lt;div&gt;&lt;span style=&quot;background-color: initial;&quot;&gt;-email NOT_NULL&lt;/span&gt;&lt;br&gt;&lt;/div&gt;" style="text;html=1;align=left;verticalAlign=middle;whiteSpace=wrap;rounded=0;labelBackgroundColor=none;fontColor=#1A1A1A;" vertex="1" parent="WIyWlLk6GJQsqaUBKTNV-1">
          <mxGeometry x="1497.71" y="690.25" width="118.43" height="30" as="geometry" />
        </mxCell>
        <mxCell id="vchGi_3dxTFBsC3WIeSS-113" value="" style="whiteSpace=wrap;html=1;shape=mxgraph.basic.document;labelBackgroundColor=none;fillColor=#FAD9D5;strokeColor=#D0CEE2;fontColor=#1A1A1A;rounded=0;" vertex="1" parent="WIyWlLk6GJQsqaUBKTNV-1">
          <mxGeometry x="1493.92" y="616.25" width="129.79" height="29" as="geometry" />
        </mxCell>
        <mxCell id="vchGi_3dxTFBsC3WIeSS-114" value="" style="whiteSpace=wrap;html=1;shape=mxgraph.basic.document;labelBackgroundColor=none;fillColor=#FAD9D5;strokeColor=#D0CEE2;fontColor=#1A1A1A;rounded=0;" vertex="1" parent="WIyWlLk6GJQsqaUBKTNV-1">
          <mxGeometry x="1493.71" y="653.25" width="126.57" height="29" as="geometry" />
        </mxCell>
        <mxCell id="vchGi_3dxTFBsC3WIeSS-115" value="&lt;div&gt;&lt;br&gt;&lt;/div&gt;" style="text;html=1;align=left;verticalAlign=middle;whiteSpace=wrap;rounded=0;labelBackgroundColor=none;fontColor=#1A1A1A;" vertex="1" parent="WIyWlLk6GJQsqaUBKTNV-1">
          <mxGeometry x="1505" y="663.75" width="116" height="15" as="geometry" />
        </mxCell>
        <mxCell id="vchGi_3dxTFBsC3WIeSS-116" value="&lt;div style=&quot;text-align: left;&quot;&gt;&lt;div&gt;-function NOT_NULL&lt;/div&gt;&lt;/div&gt;" style="text;html=1;align=center;verticalAlign=middle;whiteSpace=wrap;rounded=0;labelBackgroundColor=none;fontColor=#1A1A1A;" vertex="1" parent="WIyWlLk6GJQsqaUBKTNV-1">
          <mxGeometry x="1495.71" y="658.25" width="120" height="20" as="geometry" />
        </mxCell>
        <mxCell id="vchGi_3dxTFBsC3WIeSS-117" value="" style="endArrow=none;dashed=1;html=1;rounded=0;entryX=-0.024;entryY=0.513;entryDx=0;entryDy=0;entryPerimeter=0;exitX=0.999;exitY=0.03;exitDx=0;exitDy=0;exitPerimeter=0;labelBackgroundColor=none;strokeColor=#09555B;fontColor=default;" edge="1" parent="WIyWlLk6GJQsqaUBKTNV-1" target="vchGi_3dxTFBsC3WIeSS-120">
          <mxGeometry width="50" height="50" relative="1" as="geometry">
            <mxPoint x="1400.99" y="674" as="sourcePoint" />
            <mxPoint x="1450.93" y="600" as="targetPoint" />
          </mxGeometry>
        </mxCell>
        <mxCell id="vchGi_3dxTFBsC3WIeSS-118" value="" style="endArrow=none;dashed=1;html=1;rounded=0;entryX=-0.028;entryY=0.614;entryDx=0;entryDy=0;entryPerimeter=0;labelBackgroundColor=none;strokeColor=#09555B;fontColor=default;" edge="1" parent="WIyWlLk6GJQsqaUBKTNV-1" target="vchGi_3dxTFBsC3WIeSS-116">
          <mxGeometry width="50" height="50" relative="1" as="geometry">
            <mxPoint x="1400.93" y="691" as="sourcePoint" />
            <mxPoint x="1450.93" y="641" as="targetPoint" />
          </mxGeometry>
        </mxCell>
        <mxCell id="vchGi_3dxTFBsC3WIeSS-119" value="" style="endArrow=none;dashed=1;html=1;rounded=0;entryX=0;entryY=0.5;entryDx=0;entryDy=0;entryPerimeter=0;exitX=1.005;exitY=0.636;exitDx=0;exitDy=0;exitPerimeter=0;labelBackgroundColor=none;strokeColor=#09555B;fontColor=default;" edge="1" parent="WIyWlLk6GJQsqaUBKTNV-1" target="vchGi_3dxTFBsC3WIeSS-121">
          <mxGeometry width="50" height="50" relative="1" as="geometry">
            <mxPoint x="1401.99" y="723" as="sourcePoint" />
            <mxPoint x="1451.14" y="680" as="targetPoint" />
          </mxGeometry>
        </mxCell>
        <mxCell id="vchGi_3dxTFBsC3WIeSS-120" value="&lt;span style=&quot;text-align: left;&quot;&gt;-address NOT_NULL&lt;/span&gt;" style="text;html=1;align=center;verticalAlign=middle;whiteSpace=wrap;rounded=0;labelBackgroundColor=none;fontColor=#1A1A1A;" vertex="1" parent="WIyWlLk6GJQsqaUBKTNV-1">
          <mxGeometry x="1493" y="615.25" width="130" height="30" as="geometry" />
        </mxCell>
        <mxCell id="vchGi_3dxTFBsC3WIeSS-121" value="&lt;div&gt;&lt;span style=&quot;text-align: left;&quot;&gt;-material NOT_NULL&lt;/span&gt;&lt;br&gt;&lt;/div&gt;" style="whiteSpace=wrap;html=1;shape=mxgraph.basic.document;labelBackgroundColor=none;fillColor=#FAD9D5;strokeColor=#D0CEE2;fontColor=#1A1A1A;rounded=0;" vertex="1" parent="WIyWlLk6GJQsqaUBKTNV-1">
          <mxGeometry x="1493.6" y="728.25" width="116.4" height="29" as="geometry" />
        </mxCell>
        <mxCell id="vchGi_3dxTFBsC3WIeSS-125" value="" style="endArrow=none;dashed=1;html=1;rounded=0;entryX=-0.029;entryY=0.536;entryDx=0;entryDy=0;entryPerimeter=0;labelBackgroundColor=none;strokeColor=#09555B;fontColor=default;" edge="1" parent="WIyWlLk6GJQsqaUBKTNV-1" target="vchGi_3dxTFBsC3WIeSS-111">
          <mxGeometry width="50" height="50" relative="1" as="geometry">
            <mxPoint x="1400.99" y="708" as="sourcePoint" />
            <mxPoint x="1450.99" y="658" as="targetPoint" />
          </mxGeometry>
        </mxCell>
        <mxCell id="vchGi_3dxTFBsC3WIeSS-128" value="" style="whiteSpace=wrap;html=1;shape=mxgraph.basic.document;labelBackgroundColor=none;fillColor=#FAD9D5;strokeColor=#D0CEE2;fontColor=#1A1A1A;rounded=0;" vertex="1" parent="WIyWlLk6GJQsqaUBKTNV-1">
          <mxGeometry x="1180.8600000000001" y="831.5" width="116.57" height="29" as="geometry" />
        </mxCell>
        <mxCell id="vchGi_3dxTFBsC3WIeSS-129" value="&lt;div&gt;&lt;span style=&quot;background-color: initial;&quot;&gt;-email NOT_NULL&lt;/span&gt;&lt;br&gt;&lt;/div&gt;" style="text;html=1;align=left;verticalAlign=middle;whiteSpace=wrap;rounded=0;labelBackgroundColor=none;fontColor=#1A1A1A;" vertex="1" parent="WIyWlLk6GJQsqaUBKTNV-1">
          <mxGeometry x="1184.5700000000002" y="830.5" width="118.43" height="30" as="geometry" />
        </mxCell>
        <mxCell id="vchGi_3dxTFBsC3WIeSS-131" value="" style="whiteSpace=wrap;html=1;shape=mxgraph.basic.document;labelBackgroundColor=none;fillColor=#FAD9D5;strokeColor=#D0CEE2;fontColor=#1A1A1A;rounded=0;" vertex="1" parent="WIyWlLk6GJQsqaUBKTNV-1">
          <mxGeometry x="1180.57" y="793.5" width="109.43" height="29" as="geometry" />
        </mxCell>
        <mxCell id="vchGi_3dxTFBsC3WIeSS-132" value="&lt;div&gt;&lt;br&gt;&lt;/div&gt;" style="text;html=1;align=left;verticalAlign=middle;whiteSpace=wrap;rounded=0;labelBackgroundColor=none;fontColor=#1A1A1A;" vertex="1" parent="WIyWlLk6GJQsqaUBKTNV-1">
          <mxGeometry x="1191.8600000000001" y="804" width="116" height="15" as="geometry" />
        </mxCell>
        <mxCell id="vchGi_3dxTFBsC3WIeSS-133" value="&lt;div style=&quot;text-align: left;&quot;&gt;-seat NOT_NULL&lt;br&gt;&lt;/div&gt;" style="text;html=1;align=center;verticalAlign=middle;whiteSpace=wrap;rounded=0;labelBackgroundColor=none;fontColor=#1A1A1A;" vertex="1" parent="WIyWlLk6GJQsqaUBKTNV-1">
          <mxGeometry x="1182.57" y="798.5" width="97.43" height="20" as="geometry" />
        </mxCell>
        <mxCell id="vchGi_3dxTFBsC3WIeSS-135" value="" style="endArrow=none;dashed=1;html=1;rounded=0;entryX=-0.028;entryY=0.614;entryDx=0;entryDy=0;entryPerimeter=0;labelBackgroundColor=none;strokeColor=#09555B;fontColor=default;" edge="1" parent="WIyWlLk6GJQsqaUBKTNV-1" target="vchGi_3dxTFBsC3WIeSS-133">
          <mxGeometry width="50" height="50" relative="1" as="geometry">
            <mxPoint x="1087.79" y="831.25" as="sourcePoint" />
            <mxPoint x="1137.79" y="781.25" as="targetPoint" />
          </mxGeometry>
        </mxCell>
        <mxCell id="vchGi_3dxTFBsC3WIeSS-139" value="" style="endArrow=none;dashed=1;html=1;rounded=0;entryX=-0.029;entryY=0.536;entryDx=0;entryDy=0;entryPerimeter=0;labelBackgroundColor=none;strokeColor=#09555B;fontColor=default;" edge="1" parent="WIyWlLk6GJQsqaUBKTNV-1" target="vchGi_3dxTFBsC3WIeSS-128">
          <mxGeometry width="50" height="50" relative="1" as="geometry">
            <mxPoint x="1087.85" y="848.25" as="sourcePoint" />
            <mxPoint x="1137.85" y="798.25" as="targetPoint" />
          </mxGeometry>
        </mxCell>
        <mxCell id="vchGi_3dxTFBsC3WIeSS-150" value="" style="whiteSpace=wrap;html=1;shape=mxgraph.basic.document;labelBackgroundColor=none;fillColor=#FAD9D5;strokeColor=#D0CEE2;fontColor=#1A1A1A;rounded=0;" vertex="1" parent="WIyWlLk6GJQsqaUBKTNV-1">
          <mxGeometry x="1317.57" y="973.5" width="145.18" height="29" as="geometry" />
        </mxCell>
        <mxCell id="vchGi_3dxTFBsC3WIeSS-152" value="&lt;div style=&quot;text-align: left;&quot;&gt;-Occupation NOT_NULL&lt;br&gt;&lt;/div&gt;" style="text;html=1;align=center;verticalAlign=middle;whiteSpace=wrap;rounded=0;labelBackgroundColor=none;fontColor=#1A1A1A;" vertex="1" parent="WIyWlLk6GJQsqaUBKTNV-1">
          <mxGeometry x="1317.75" y="978" width="136.82" height="20" as="geometry" />
        </mxCell>
        <mxCell id="vchGi_3dxTFBsC3WIeSS-153" value="" style="endArrow=none;dashed=1;html=1;rounded=0;entryX=-0.028;entryY=0.614;entryDx=0;entryDy=0;entryPerimeter=0;labelBackgroundColor=none;strokeColor=#09555B;fontColor=default;" edge="1" parent="WIyWlLk6GJQsqaUBKTNV-1" target="vchGi_3dxTFBsC3WIeSS-152">
          <mxGeometry width="50" height="50" relative="1" as="geometry">
            <mxPoint x="1224.79" y="1011.25" as="sourcePoint" />
            <mxPoint x="1274.79" y="961.25" as="targetPoint" />
          </mxGeometry>
        </mxCell>
        <mxCell id="vchGi_3dxTFBsC3WIeSS-154" value="" style="endArrow=none;dashed=1;html=1;rounded=0;entryX=-0.029;entryY=0.536;entryDx=0;entryDy=0;entryPerimeter=0;labelBackgroundColor=none;strokeColor=#09555B;fontColor=default;" edge="1" parent="WIyWlLk6GJQsqaUBKTNV-1" target="vchGi_3dxTFBsC3WIeSS-148">
          <mxGeometry width="50" height="50" relative="1" as="geometry">
            <mxPoint x="1224.85" y="1028.25" as="sourcePoint" />
            <mxPoint x="1274.85" y="978.25" as="targetPoint" />
          </mxGeometry>
        </mxCell>
        <mxCell id="vchGi_3dxTFBsC3WIeSS-157" value="" style="whiteSpace=wrap;html=1;shape=mxgraph.basic.document;labelBackgroundColor=none;fillColor=#FAD9D5;strokeColor=#D0CEE2;fontColor=#1A1A1A;rounded=0;" vertex="1" parent="WIyWlLk6GJQsqaUBKTNV-1">
          <mxGeometry x="914.15" y="1072" width="151.85" height="29" as="geometry" />
        </mxCell>
        <mxCell id="vchGi_3dxTFBsC3WIeSS-158" value="&lt;div style=&quot;text-align: left;&quot;&gt;-NumFollowers NOT_NULL&lt;br&gt;&lt;/div&gt;" style="text;html=1;align=center;verticalAlign=middle;whiteSpace=wrap;rounded=0;labelBackgroundColor=none;fontColor=#1A1A1A;" vertex="1" parent="WIyWlLk6GJQsqaUBKTNV-1">
          <mxGeometry x="914.33" y="1076.5" width="151.67" height="20" as="geometry" />
        </mxCell>
        <mxCell id="vchGi_3dxTFBsC3WIeSS-159" value="" style="endArrow=none;dashed=1;html=1;rounded=0;entryX=0.836;entryY=1.006;entryDx=0;entryDy=0;entryPerimeter=0;exitX=0.44;exitY=-0.084;exitDx=0;exitDy=0;exitPerimeter=0;labelBackgroundColor=none;strokeColor=#09555B;fontColor=default;" edge="1" parent="WIyWlLk6GJQsqaUBKTNV-1" target="OLpAq79K6-Yp3FqnE2U5-58" source="vchGi_3dxTFBsC3WIeSS-157">
          <mxGeometry width="50" height="50" relative="1" as="geometry">
            <mxPoint x="758.3699999999999" y="1109.75" as="sourcePoint" />
            <mxPoint x="808.3699999999999" y="1059.75" as="targetPoint" />
          </mxGeometry>
        </mxCell>
        <mxCell id="vchGi_3dxTFBsC3WIeSS-160" value="" style="endArrow=none;dashed=1;html=1;rounded=0;entryX=0.388;entryY=1.036;entryDx=0;entryDy=0;entryPerimeter=0;exitX=0.386;exitY=0.025;exitDx=0;exitDy=0;exitPerimeter=0;labelBackgroundColor=none;strokeColor=#09555B;fontColor=default;" edge="1" parent="WIyWlLk6GJQsqaUBKTNV-1" target="OLpAq79K6-Yp3FqnE2U5-58" source="vchGi_3dxTFBsC3WIeSS-28">
          <mxGeometry width="50" height="50" relative="1" as="geometry">
            <mxPoint x="758.4299999999998" y="1126.75" as="sourcePoint" />
            <mxPoint x="808.4299999999998" y="1076.75" as="targetPoint" />
          </mxGeometry>
        </mxCell>
        <mxCell id="vchGi_3dxTFBsC3WIeSS-172" value="" style="endArrow=none;dashed=1;html=1;rounded=0;exitX=1;exitY=0.5;exitDx=0;exitDy=0;labelBackgroundColor=none;strokeColor=#09555B;fontColor=default;" edge="1" parent="WIyWlLk6GJQsqaUBKTNV-1">
          <mxGeometry width="50" height="50" relative="1" as="geometry">
            <mxPoint x="363.43000000000006" y="531" as="sourcePoint" />
            <mxPoint x="434" y="531" as="targetPoint" />
          </mxGeometry>
        </mxCell>
        <mxCell id="vchGi_3dxTFBsC3WIeSS-173" value="" style="whiteSpace=wrap;html=1;shape=mxgraph.basic.document;labelBackgroundColor=none;fillColor=#FAD9D5;strokeColor=#D0CEE2;fontColor=#1A1A1A;rounded=0;" vertex="1" parent="WIyWlLk6GJQsqaUBKTNV-1">
          <mxGeometry x="244" y="546" width="120" height="29" as="geometry" />
        </mxCell>
        <mxCell id="vchGi_3dxTFBsC3WIeSS-174" value="&lt;div&gt;-season NOT_NULL&lt;/div&gt;" style="text;html=1;align=left;verticalAlign=middle;whiteSpace=wrap;rounded=0;labelBackgroundColor=none;fontColor=#1A1A1A;" vertex="1" parent="WIyWlLk6GJQsqaUBKTNV-1">
          <mxGeometry x="246.79000000000002" y="552" width="118.43" height="17" as="geometry" />
        </mxCell>
        <mxCell id="vchGi_3dxTFBsC3WIeSS-175" value="" style="endArrow=none;dashed=1;html=1;rounded=0;exitX=0.983;exitY=0.651;exitDx=0;exitDy=0;exitPerimeter=0;labelBackgroundColor=none;strokeColor=#09555B;fontColor=default;" edge="1" parent="WIyWlLk6GJQsqaUBKTNV-1" source="vchGi_3dxTFBsC3WIeSS-174">
          <mxGeometry width="50" height="50" relative="1" as="geometry">
            <mxPoint x="361" y="563" as="sourcePoint" />
            <mxPoint x="432" y="563" as="targetPoint" />
          </mxGeometry>
        </mxCell>
        <mxCell id="vchGi_3dxTFBsC3WIeSS-178" value="" style="endArrow=none;dashed=1;html=1;rounded=0;exitX=0.568;exitY=1.015;exitDx=0;exitDy=0;exitPerimeter=0;labelBackgroundColor=none;strokeColor=#09555B;fontColor=default;" edge="1" parent="WIyWlLk6GJQsqaUBKTNV-1" source="vchGi_3dxTFBsC3WIeSS-176">
          <mxGeometry width="50" height="50" relative="1" as="geometry">
            <mxPoint x="385" y="749" as="sourcePoint" />
            <mxPoint x="435" y="699" as="targetPoint" />
          </mxGeometry>
        </mxCell>
        <mxCell id="vchGi_3dxTFBsC3WIeSS-21" value="&lt;div&gt;&lt;span style=&quot;background-color: initial;&quot;&gt;-location NOT_NULL&lt;/span&gt;&lt;br&gt;&lt;/div&gt;" style="text;html=1;align=left;verticalAlign=middle;whiteSpace=wrap;rounded=0;labelBackgroundColor=none;fontColor=#1A1A1A;" vertex="1" parent="WIyWlLk6GJQsqaUBKTNV-1">
          <mxGeometry x="1112.7099999999998" y="631" width="121.21" height="30" as="geometry" />
        </mxCell>
        <mxCell id="vchGi_3dxTFBsC3WIeSS-180" value="" style="endArrow=none;html=1;rounded=0;entryX=0.472;entryY=1.004;entryDx=0;entryDy=0;entryPerimeter=0;exitX=0.508;exitY=-0.002;exitDx=0;exitDy=0;exitPerimeter=0;labelBackgroundColor=none;strokeColor=#09555B;fontColor=default;" edge="1" parent="WIyWlLk6GJQsqaUBKTNV-1" source="p8ek3zYSkrZ3l4gXPesr-0" target="p8ek3zYSkrZ3l4gXPesr-11">
          <mxGeometry width="50" height="50" relative="1" as="geometry">
            <mxPoint x="1023" y="652" as="sourcePoint" />
            <mxPoint x="1025" y="569" as="targetPoint" />
          </mxGeometry>
        </mxCell>
        <mxCell id="vchGi_3dxTFBsC3WIeSS-181" value="1" style="text;html=1;align=center;verticalAlign=middle;whiteSpace=wrap;rounded=0;labelBackgroundColor=none;fontColor=#1A1A1A;" vertex="1" parent="WIyWlLk6GJQsqaUBKTNV-1">
          <mxGeometry x="1023.5699999999999" y="641" width="10" height="10" as="geometry" />
        </mxCell>
        <mxCell id="vchGi_3dxTFBsC3WIeSS-184" value="&lt;span style=&quot;text-align: left;&quot;&gt;-budget NOT_NULL&lt;/span&gt;" style="whiteSpace=wrap;html=1;shape=mxgraph.basic.document;labelBackgroundColor=none;fillColor=#FAD9D5;strokeColor=#D0CEE2;fontColor=#1A1A1A;rounded=0;" vertex="1" parent="WIyWlLk6GJQsqaUBKTNV-1">
          <mxGeometry x="1101.9999999999995" y="594.5" width="129.79" height="29" as="geometry" />
        </mxCell>
        <mxCell id="vchGi_3dxTFBsC3WIeSS-185" value="" style="whiteSpace=wrap;html=1;shape=mxgraph.basic.document;labelBackgroundColor=none;fillColor=#FAD9D5;strokeColor=#D0CEE2;fontColor=#1A1A1A;rounded=0;" vertex="1" parent="WIyWlLk6GJQsqaUBKTNV-1">
          <mxGeometry x="1065.4999999999998" y="558" width="177.22" height="29" as="geometry" />
        </mxCell>
        <mxCell id="vchGi_3dxTFBsC3WIeSS-187" value="&lt;div style=&quot;text-align: left;&quot;&gt;&lt;div&gt;-responsible entity NOT_NULL&lt;/div&gt;&lt;div&gt;&lt;br&gt;&lt;/div&gt;&lt;/div&gt;" style="text;html=1;align=center;verticalAlign=middle;whiteSpace=wrap;rounded=0;labelBackgroundColor=none;fontColor=#1A1A1A;" vertex="1" parent="WIyWlLk6GJQsqaUBKTNV-1">
          <mxGeometry x="1064.7899999999997" y="570" width="175.22" height="20" as="geometry" />
        </mxCell>
        <mxCell id="vchGi_3dxTFBsC3WIeSS-188" value="" style="endArrow=none;dashed=1;html=1;rounded=0;exitX=0.999;exitY=0.03;exitDx=0;exitDy=0;exitPerimeter=0;entryX=0.091;entryY=0.97;entryDx=0;entryDy=0;entryPerimeter=0;labelBackgroundColor=none;strokeColor=#09555B;fontColor=default;" edge="1" parent="WIyWlLk6GJQsqaUBKTNV-1" target="vchGi_3dxTFBsC3WIeSS-187">
          <mxGeometry width="50" height="50" relative="1" as="geometry">
            <mxPoint x="1058.57" y="654.5" as="sourcePoint" />
            <mxPoint x="1076.7805999999998" y="603.247" as="targetPoint" />
          </mxGeometry>
        </mxCell>
        <mxCell id="vchGi_3dxTFBsC3WIeSS-189" value="" style="endArrow=none;dashed=1;html=1;rounded=0;labelBackgroundColor=none;strokeColor=#09555B;fontColor=default;" edge="1" parent="WIyWlLk6GJQsqaUBKTNV-1">
          <mxGeometry width="50" height="50" relative="1" as="geometry">
            <mxPoint x="1078.44" y="654.5" as="sourcePoint" />
            <mxPoint x="1103" y="622" as="targetPoint" />
          </mxGeometry>
        </mxCell>
        <mxCell id="vchGi_3dxTFBsC3WIeSS-193" value="" style="endArrow=none;dashed=1;html=1;rounded=0;entryX=0.002;entryY=0.367;entryDx=0;entryDy=0;entryPerimeter=0;labelBackgroundColor=none;strokeColor=#09555B;fontColor=default;" edge="1" parent="WIyWlLk6GJQsqaUBKTNV-1">
          <mxGeometry width="50" height="50" relative="1" as="geometry">
            <mxPoint x="1084.7899999999997" y="654.25" as="sourcePoint" />
            <mxPoint x="1109.9524199999998" y="643.0099999999999" as="targetPoint" />
          </mxGeometry>
        </mxCell>
        <mxCell id="vchGi_3dxTFBsC3WIeSS-214" value="" style="whiteSpace=wrap;html=1;shape=mxgraph.basic.document;labelBackgroundColor=none;fillColor=#FAD9D5;strokeColor=#D0CEE2;fontColor=#1A1A1A;rounded=0;" vertex="1" parent="WIyWlLk6GJQsqaUBKTNV-1">
          <mxGeometry x="693.62" y="892.35" width="110.22" height="19.65" as="geometry" />
        </mxCell>
        <mxCell id="vchGi_3dxTFBsC3WIeSS-215" value="&lt;div style=&quot;text-align: left;&quot;&gt;-type NOT_NULL&lt;/div&gt;" style="text;html=1;align=center;verticalAlign=middle;whiteSpace=wrap;rounded=0;labelBackgroundColor=none;fontColor=#1A1A1A;" vertex="1" parent="WIyWlLk6GJQsqaUBKTNV-1">
          <mxGeometry x="693.81" y="892.35" width="96.82" height="20" as="geometry" />
        </mxCell>
        <mxCell id="vchGi_3dxTFBsC3WIeSS-216" value="" style="endArrow=none;dashed=1;html=1;rounded=0;entryX=0.241;entryY=1.027;entryDx=0;entryDy=0;entryPerimeter=0;labelBackgroundColor=none;strokeColor=#09555B;fontColor=default;" edge="1" parent="WIyWlLk6GJQsqaUBKTNV-1">
          <mxGeometry width="50" height="50" relative="1" as="geometry">
            <mxPoint x="743" y="892" as="sourcePoint" />
            <mxPoint x="815.91" y="877.0000000000001" as="targetPoint" />
          </mxGeometry>
        </mxCell>
        <mxCell id="vchGi_3dxTFBsC3WIeSS-218" value="" style="endArrow=none;dashed=1;html=1;rounded=0;entryX=0.79;entryY=1.018;entryDx=0;entryDy=0;entryPerimeter=0;exitX=0.5;exitY=0;exitDx=0;exitDy=0;exitPerimeter=0;labelBackgroundColor=none;strokeColor=#09555B;fontColor=default;" edge="1" parent="WIyWlLk6GJQsqaUBKTNV-1" source="vchGi_3dxTFBsC3WIeSS-212" target="OLpAq79K6-Yp3FqnE2U5-89">
          <mxGeometry width="50" height="50" relative="1" as="geometry">
            <mxPoint x="873" y="892" as="sourcePoint" />
            <mxPoint x="903" y="882" as="targetPoint" />
          </mxGeometry>
        </mxCell>
        <mxCell id="vchGi_3dxTFBsC3WIeSS-220" value="" style="whiteSpace=wrap;html=1;shape=mxgraph.basic.document;labelBackgroundColor=none;fillColor=#FAD9D5;strokeColor=#D0CEE2;fontColor=#1A1A1A;rounded=0;" vertex="1" parent="WIyWlLk6GJQsqaUBKTNV-1">
          <mxGeometry x="598" y="788.5" width="116.57" height="29" as="geometry" />
        </mxCell>
        <mxCell id="vchGi_3dxTFBsC3WIeSS-221" value="&lt;div&gt;&lt;div&gt;-time NOT_NULL&lt;/div&gt;&lt;/div&gt;" style="text;html=1;align=left;verticalAlign=middle;whiteSpace=wrap;rounded=0;labelBackgroundColor=none;fontColor=#1A1A1A;" vertex="1" parent="WIyWlLk6GJQsqaUBKTNV-1">
          <mxGeometry x="601.71" y="787.5" width="105.81" height="30" as="geometry" />
        </mxCell>
        <mxCell id="vchGi_3dxTFBsC3WIeSS-222" value="" style="whiteSpace=wrap;html=1;shape=mxgraph.basic.document;labelBackgroundColor=none;fillColor=#FAD9D5;strokeColor=#D0CEE2;fontColor=#1A1A1A;rounded=0;" vertex="1" parent="WIyWlLk6GJQsqaUBKTNV-1">
          <mxGeometry x="598.4" y="720" width="119.6" height="29" as="geometry" />
        </mxCell>
        <mxCell id="vchGi_3dxTFBsC3WIeSS-223" value="" style="whiteSpace=wrap;html=1;shape=mxgraph.basic.document;labelBackgroundColor=none;fillColor=#FAD9D5;strokeColor=#D0CEE2;fontColor=#1A1A1A;rounded=0;" vertex="1" parent="WIyWlLk6GJQsqaUBKTNV-1">
          <mxGeometry x="599" y="754.47" width="109.81" height="29" as="geometry" />
        </mxCell>
        <mxCell id="vchGi_3dxTFBsC3WIeSS-224" value="&lt;div&gt;&lt;br&gt;&lt;/div&gt;" style="text;html=1;align=left;verticalAlign=middle;whiteSpace=wrap;rounded=0;labelBackgroundColor=none;fontColor=#1A1A1A;" vertex="1" parent="WIyWlLk6GJQsqaUBKTNV-1">
          <mxGeometry x="610.29" y="764.97" width="116" height="15" as="geometry" />
        </mxCell>
        <mxCell id="vchGi_3dxTFBsC3WIeSS-225" value="&lt;div style=&quot;text-align: left;&quot;&gt;-date NOT_NULL&lt;br&gt;&lt;/div&gt;" style="text;html=1;align=center;verticalAlign=middle;whiteSpace=wrap;rounded=0;labelBackgroundColor=none;fontColor=#1A1A1A;" vertex="1" parent="WIyWlLk6GJQsqaUBKTNV-1">
          <mxGeometry x="601" y="759.47" width="97.81" height="20" as="geometry" />
        </mxCell>
        <mxCell id="vchGi_3dxTFBsC3WIeSS-226" value="" style="endArrow=none;dashed=1;html=1;rounded=0;entryX=-0.011;entryY=0.539;entryDx=0;entryDy=0;entryPerimeter=0;exitX=0.992;exitY=0.521;exitDx=0;exitDy=0;exitPerimeter=0;labelBackgroundColor=none;strokeColor=#09555B;fontColor=default;" edge="1" parent="WIyWlLk6GJQsqaUBKTNV-1" target="OLpAq79K6-Yp3FqnE2U5-14" source="vchGi_3dxTFBsC3WIeSS-222">
          <mxGeometry width="50" height="50" relative="1" as="geometry">
            <mxPoint x="733" y="722" as="sourcePoint" />
            <mxPoint x="756.9775200000004" y="721.7400000000001" as="targetPoint" />
          </mxGeometry>
        </mxCell>
        <mxCell id="vchGi_3dxTFBsC3WIeSS-227" value="" style="endArrow=none;dashed=1;html=1;rounded=0;entryX=-0.014;entryY=0.732;entryDx=0;entryDy=0;entryPerimeter=0;exitX=0.842;exitY=0.267;exitDx=0;exitDy=0;exitPerimeter=0;labelBackgroundColor=none;strokeColor=#09555B;fontColor=default;" edge="1" parent="WIyWlLk6GJQsqaUBKTNV-1" target="OLpAq79K6-Yp3FqnE2U5-14" source="vchGi_3dxTFBsC3WIeSS-224">
          <mxGeometry width="50" height="50" relative="1" as="geometry">
            <mxPoint x="681.8100000000002" y="764.97" as="sourcePoint" />
            <mxPoint x="773.8513200000002" y="744.5" as="targetPoint" />
          </mxGeometry>
        </mxCell>
        <mxCell id="vchGi_3dxTFBsC3WIeSS-228" value="" style="endArrow=none;dashed=1;html=1;rounded=0;entryX=0.039;entryY=1.03;entryDx=0;entryDy=0;entryPerimeter=0;exitX=0.984;exitY=0.393;exitDx=0;exitDy=0;exitPerimeter=0;labelBackgroundColor=none;strokeColor=#09555B;fontColor=default;" edge="1" parent="WIyWlLk6GJQsqaUBKTNV-1" target="OLpAq79K6-Yp3FqnE2U5-14" source="vchGi_3dxTFBsC3WIeSS-230">
          <mxGeometry width="50" height="50" relative="1" as="geometry">
            <mxPoint x="705.9200000000001" y="818.13" as="sourcePoint" />
            <mxPoint x="797.53" y="835.88" as="targetPoint" />
          </mxGeometry>
        </mxCell>
        <mxCell id="vchGi_3dxTFBsC3WIeSS-229" value="&lt;span style=&quot;&quot;&gt;-bname NOT_NULL&lt;/span&gt;" style="text;html=1;align=left;verticalAlign=middle;whiteSpace=wrap;rounded=0;labelBackgroundColor=none;fontColor=#1A1A1A;" vertex="1" parent="WIyWlLk6GJQsqaUBKTNV-1">
          <mxGeometry x="599.4799999999999" y="719" width="110.52" height="30" as="geometry" />
        </mxCell>
        <mxCell id="vchGi_3dxTFBsC3WIeSS-230" value="&lt;div&gt;&lt;span style=&quot;background-color: initial; text-wrap: nowrap; color: rgba(0, 0, 0, 0); font-family: monospace; font-size: 0px;&quot;&gt;%3CmxGraphModel%3E%3Croot%3E%3CmxCell%20id%3D%220%22%2F%3E%3CmxCell%20id%3D%221%22%20parent%3D%220%22%2F%3E%3CmxCell%20id%3D%222%22%20value%3D%22-model%20NOT_NULL%26lt%3Bdiv%26gt%3B-function%20NOT_NULL%26lt%3B%2Fdiv%26gt%3B%26lt%3Bdiv%26gt%3B-email%20NOT_NULL%26lt%3B%2Fdiv%26gt%3B%22%20style%3D%22text%3Bhtml%3D1%3Balign%3Dleft%3BverticalAlign%3Dmiddle%3BwhiteSpace%3Dwrap%3Brounded%3D0%3B%22%20vertex%3D%221%22%20parent%3D%221%22%3E%3CmxGeometry%20x%3D%221021.57%22%20y%3D%22260%22%20width%3D%22118.43%22%20height%3D%2230%22%20as%3D%22geometry%22%2F%3E%3C%2FmxCell%3E%3C%2Froot%3E%3C%2FmxGraphModel%3E&lt;/span&gt;&lt;span style=&quot;background-color: initial;&quot;&gt;-budget NOT_NULL&lt;/span&gt;&lt;/div&gt;" style="whiteSpace=wrap;html=1;shape=mxgraph.basic.document;align=left;labelBackgroundColor=none;fillColor=#FAD9D5;strokeColor=#D0CEE2;fontColor=#1A1A1A;rounded=0;" vertex="1" parent="WIyWlLk6GJQsqaUBKTNV-1">
          <mxGeometry x="597" y="823" width="119.92" height="25" as="geometry" />
        </mxCell>
        <mxCell id="vchGi_3dxTFBsC3WIeSS-231" value="" style="endArrow=none;dashed=1;html=1;rounded=0;entryX=-0.02;entryY=0.831;entryDx=0;entryDy=0;entryPerimeter=0;exitX=0.99;exitY=0.436;exitDx=0;exitDy=0;exitPerimeter=0;labelBackgroundColor=none;strokeColor=#09555B;fontColor=default;" edge="1" parent="WIyWlLk6GJQsqaUBKTNV-1" target="OLpAq79K6-Yp3FqnE2U5-14" source="vchGi_3dxTFBsC3WIeSS-220">
          <mxGeometry width="50" height="50" relative="1" as="geometry">
            <mxPoint x="703.5699999999999" y="783.21" as="sourcePoint" />
            <mxPoint x="793.1994699999998" y="782.0040000000001" as="targetPoint" />
          </mxGeometry>
        </mxCell>
        <mxCell id="vchGi_3dxTFBsC3WIeSS-240" value="" style="endArrow=none;dashed=1;html=1;dashPattern=1 3;strokeWidth=2;rounded=0;exitX=1.022;exitY=0.615;exitDx=0;exitDy=0;exitPerimeter=0;labelBackgroundColor=none;strokeColor=#09555B;fontColor=default;" edge="1" parent="WIyWlLk6GJQsqaUBKTNV-1" source="vchGi_3dxTFBsC3WIeSS-239">
          <mxGeometry width="50" height="50" relative="1" as="geometry">
            <mxPoint x="721" y="608" as="sourcePoint" />
            <mxPoint x="771" y="558" as="targetPoint" />
          </mxGeometry>
        </mxCell>
      </root>
    </mxGraphModel>
  </diagram>
</mxfile>
